<svg xmlns="http://www.w3.org/2000/svg" viewBox="0 0 290.87 389.74">
  <defs>
    <style>
      .cls-1 {
        fill: #337253;
      }

      .cls-2 {
        fill: #fff8d4;
      }
    </style>
  </defs>
  <title>sunset-burger</title>
  <g id="Layer_2" data-name="Layer 2">
    <g id="Layer_1-2" data-name="Layer 1">
      <path class="cls-1" d="M183.78,157.3a11.74,11.74,0,0,1-4.36-.83,1.2,1.2,0,0,1,.88-2.23,9.41,9.41,0,1,0-5.92-8.74,1.2,1.2,0,1,1-2.4,0,11.81,11.81,0,1,1,11.8,11.8Z"/>
      <path class="cls-1" d="M198.71,148.64a23.48,23.48,0,0,1,5.86-2.27c5.57-1.71,12.7-4,24.39-14,0,0-1.73,8.39-1.2,13.93s-2.66,9.8-9.59,7.94c-5.13-1.38-9.12-5.17-13.93-5.74A16.06,16.06,0,0,0,198.71,148.64Z"/>
      <path class="cls-1" d="M225.37,165.7a.79.79,0,0,1-.78-.62.8.8,0,0,1,.59-1c3.7-.85,6-1.62,7.44-5.11a.8.8,0,1,1,1.49.59c-1.81,4.52-5.4,5.35-8.56,6.08Z"/>
      <path class="cls-1" d="M205.82,135.22a2.9,2.9,0,0,1-.1-2.41,4.73,4.73,0,0,1,1.53-1.94,5,5,0,0,1,2.32-.62,8,8,0,0,1,1.14.18,4.86,4.86,0,0,1,1.06.61l0,0a.06.06,0,0,1,0,.09l0,0a6.91,6.91,0,0,0-3.67,1,4.79,4.79,0,0,0-2.14,3s0,.07-.08.06a.07.07,0,0,1-.05,0Z"/>
      <path class="cls-1" d="M175.35,139a1.59,1.59,0,0,1-1.48-1c-.24-.57-5.86-14.18-7.44-18.35a11.68,11.68,0,0,1,.06-8.82,7.8,7.8,0,0,1,4.48-4.18c7.07-2.57,12.86,4.7,20.64,25.93a1.6,1.6,0,1,1-3,1.1c-8.62-23.5-13.39-25.18-16.55-24a4.62,4.62,0,0,0-2.66,2.51,8.59,8.59,0,0,0,0,6.35c1.58,4.13,7.36,18.13,7.41,18.27a1.6,1.6,0,0,1-.86,2.09A1.66,1.66,0,0,1,175.35,139Z"/>
      <ellipse class="cls-1" cx="181.62" cy="122.61" rx="3.63" ry="8" transform="translate(-33.63 81.55) rotate(-23.22)"/>
      <path class="cls-1" d="M213.14,117.92a1.55,1.55,0,0,1-1.31-.72c-.27-.44-6.79-10.81-8.92-14.44a10.59,10.59,0,0,1-1.23-8.08A7.52,7.52,0,0,1,205.5,90c6.38-3.34,11.72,1.22,22.85,19.52a1.54,1.54,0,0,1-2.63,1.6c-12-19.8-15.63-20.06-18.79-18.4a4.46,4.46,0,0,0-2.29,2.82,7.46,7.46,0,0,0,.92,5.68c2.11,3.59,8.81,14.26,8.88,14.37a1.54,1.54,0,0,1-.49,2.12A1.49,1.49,0,0,1,213.14,117.92Z"/>
      <ellipse class="cls-1" cx="217.64" cy="102" rx="3.63" ry="7.07" transform="translate(-21.06 130.11) rotate(-31.83)"/>
      <g>
        <path class="cls-1" d="M167.87,97.31c-.32.25-1.62,1.06-3.12,2-2.51,1.56-5.64,3.5-6.59,4.32a6.13,6.13,0,0,0-1.48,1.93,3.14,3.14,0,0,1-1,1.24c-.34.24-.72.57-.63,1s.76.61,1.44.72c.19,0,.38.06.53.1a4,4,0,0,0,.92.09,5.36,5.36,0,0,0,2.61-.58c.27-.2,1.46-1.16,3-2.37,1.89-1.52,4-3.24,4.92-3.91l.85-.6c1-.68,1.72-1.21,1.82-1.92a1.24,1.24,0,0,0-.3-.94Q169.18,96.31,167.87,97.31Z"/>
        <path class="cls-1" d="M206.2,86.56a4.57,4.57,0,0,1-.72-1.57c-.27-.82-.5-1.53-1.08-1.72a1.1,1.1,0,0,0-1,.2c-.33.17-8.16,4-10.66,5.83-1.2.88-1.81,1.62-1.9,2.36a2.24,2.24,0,0,0,.73,1.72,2.74,2.74,0,0,0,1.87,1.16h.13a3,3,0,0,0,1.92-1l.15-.13c.58-.5,3.4-2.12,5.27-3.19l1.67-1c1.7-1,3.5-2.1,3.5-2.1a.42.42,0,0,0,.19-.28A.44.44,0,0,0,206.2,86.56Z"/>
      </g>
      <path class="cls-1" d="M100.88,110.49c-3.23,2.82-6.26,7-5.74,9a1.38,1.38,0,0,0,1.12,1.05l.26,0c2.53,0,4.61-8,5-9.66l.3-1.22Z"/>
      <path class="cls-1" d="M124.1,117.09c-1-2.52-6.85-3.52-7.1-3.56l-.74-.13.32.69c.93,2,3.72,5.88,5.73,6.08h.16a1.44,1.44,0,0,0,1.19-.63A2.44,2.44,0,0,0,124.1,117.09Z"/>
      <path class="cls-1" d="M121.61,99.76c4.28-.29,9.19-1.75,10-3.68a1.36,1.36,0,0,0-.26-1.5l-.19-.19c-2-1.53-8.51,3.59-9.82,4.67l-1,.79Z"/>
      <path class="cls-1" d="M100.2,91.78c-.55,2.67,3.72,6.74,3.91,6.92l.55.52.11-.75c.36-2.2.19-7-1.37-8.25l-.13-.09a1.44,1.44,0,0,0-1.34-.15A2.45,2.45,0,0,0,100.2,91.78Z"/>
      <path class="cls-1" d="M108.45,208.32c-25.45,0-41.44-1.73-45-5.09a2.65,2.65,0,0,1-.94-1.94V186.64a1.24,1.24,0,0,1,2.47,0v14.65c.86,2.25,20,7.26,97.3,2.76L175,202.44c35.18-4.42,56.63-7.12,76.38-13.47-.28-2.95-1.16-11.89-2.29-16.3a1.23,1.23,0,1,1,2.39-.61c1.41,5.51,2.4,17.19,2.44,17.68a1.24,1.24,0,0,1-.84,1.28c-20.23,6.63-41.89,9.36-77.77,13.87l-12.81,1.62C141.63,207.72,123.4,208.32,108.45,208.32Z"/>
      <path class="cls-1" d="M37.77,239.66c-1.8,0-3.3-.37-4-1.16a2.3,2.3,0,0,1,.07-3.15c1.21-1.61.87-2.85.38-4.73a14.11,14.11,0,0,1-.62-3.74c0-3,3.11-6.1,6.12-9.14A44.28,44.28,0,0,0,43,214.15c1-1.35.56-2.64-.24-4.31-.48-1-.93-1.94-.49-2.85a1.93,1.93,0,0,1,1.4-1,3.05,3.05,0,0,0,2.08-2.18.72.72,0,0,0-.12-.73c-1-.78-1.14-2.42-.28-4.88.39-1.1,1.66-4.66,3.73-4.64A1.76,1.76,0,0,1,50.72,195a.87.87,0,0,0,.56.65c1,.4,3.35-.19,5.26-1.35a17.85,17.85,0,0,1,7.05-2.38,1.18,1.18,0,0,1,1.35,1,1.2,1.2,0,0,1-1,1.34,15.45,15.45,0,0,0-6.12,2.06c-2,1.24-5.19,2.39-7.37,1.53a3.18,3.18,0,0,1-1.62-1.35c-.87,1.32-1.84,4.07-1.57,4.79a2.83,2.83,0,0,1,.9,3,5.48,5.48,0,0,1-3.47,3.91l.29.64c.75,1.56,2,4.19,0,6.81a46.34,46.34,0,0,1-3.51,3.8C39,221.87,36,224.91,36,226.88a11.86,11.86,0,0,0,.54,3.13c.52,2,1.12,4.24-.78,6.78a.89.89,0,0,0-.17.3c.69.55,6.22.37,10-2l1.47-.95c4.09-2.66,6.8-4.41,10.91-3.18,1.51.46,5.27-2.91,8-5.38,3.09-2.82,5.76-5.25,8-5.46A21.75,21.75,0,0,0,78,218.88c4.11-1.47,9.23-3.29,13.09-.28,3.36,2.61,9.59,7.47,13.85,6.7a7.26,7.26,0,0,0,3.39-1.63,5.37,5.37,0,0,1,5.51-1.14,20.3,20.3,0,0,1,4.56,2.07c1.38.79,2.19,1.23,3,1.09a6.5,6.5,0,0,0,2.29-1.3c1.09-.8,2.12-1.55,3.22-1.24a2,2,0,0,1,1.32,1.28c.32.82,1.31,3.29,6.3,1.7,2.11-.67,3.69-2.27,5.22-3.83,1.83-1.86,3.72-3.78,6.48-4a7,7,0,0,0,2.81-.74c1.73-.79,3.07-1.12,6.94.87,1,.49,1.83,1,2.62,1.39,4.09,2.21,5.84,3.07,8.19,2.27,2.81-.95,3.24-1,5.05-.06.43.23,1,.53,1.81.9,2.87,1.3,6.43-.32,6.83-.91a6.48,6.48,0,0,1,3.29-3.71,5.23,5.23,0,0,1,4.64.11,54.44,54.44,0,0,1,6.64,3.82,1.27,1.27,0,0,1,.35.38,21.19,21.19,0,0,0,2.69,3.75,24.62,24.62,0,0,1,8-4.69,10,10,0,0,1,3.83-.13c1.9.19,2.54.16,2.87-.48,2-3.82,4.43-5.86,7.38-6.23a13.75,13.75,0,0,1,3.68.13,8.46,8.46,0,0,0,5.06-.44,76.62,76.62,0,0,1,10.44-3.15,19.8,19.8,0,0,1,12.37-1.73c7.49,1.33,11.86.42,12.42-.34,1.6-2.12,5.88-.83,7.49-.18.18-.17.4-.42.58-.62a8.26,8.26,0,0,1,3.33-2.59A7,7,0,0,1,279,206a4.34,4.34,0,0,0,2.7,0,7.45,7.45,0,0,0,1.5-1.1,5.24,5.24,0,0,1,3.84-1.66,1.44,1.44,0,0,0,1.4-.75c0-.24-.41-.82-1.81-1.33a19.33,19.33,0,0,0-4.52-1.08,4.83,4.83,0,0,1-3.11-1.19c-.28-.28-.71-.67-1.21-1.11-2.44-2.2-4.34-4-4.71-5.45a3.05,3.05,0,0,0-1.56-1.31,3.91,3.91,0,0,0-3.15-.25l-.87.45c-2.31,1.23-3.14.73-5.16-1.92l-.56-.74c-1.85-2.48-3.07-4.12-8.32-4.12a1.2,1.2,0,1,1,0-2.4c6.46,0,8.21,2.36,10.25,5.09l.54.72a9.1,9.1,0,0,0,1.45,1.63,7.19,7.19,0,0,1,.67-.38l1-.49a6.15,6.15,0,0,1,5.21.25,4.92,4.92,0,0,1,2.87,2.89c.22.86,2.86,3.23,4,4.24.54.48,1,.9,1.31,1.2s.68.37,1.74.51a22.06,22.06,0,0,1,5,1.21c3.44,1.25,3.49,3.21,3.35,4a3.67,3.67,0,0,1-3.76,2.72,3,3,0,0,0-2.26,1.07,9.14,9.14,0,0,1-2,1.43,6.18,6.18,0,0,1-4.24.21,5.18,5.18,0,0,0-2.34-.13,6.6,6.6,0,0,0-2.27,1.91c-.86,1-1.83,2-3,1.36s-4.46-1.36-4.94-.73c-1.89,2.52-9.13,2.25-14.76,1.26a17.53,17.53,0,0,0-10.92,1.53,1.06,1.06,0,0,1-.33.14,77.94,77.94,0,0,0-10.19,3.05,10.77,10.77,0,0,1-6.32.62,11.23,11.23,0,0,0-3.07-.13c-2.11.26-3.93,1.89-5.55,5-1.15,2.17-3.43,1.93-5.24,1.75a8.05,8.05,0,0,0-2.91,0,21.46,21.46,0,0,0-7.22,4.38,1.64,1.64,0,0,1-1.39.63c-1.2-.08-2.76-1.73-4.65-4.92a52.49,52.49,0,0,0-6.1-3.49,2.84,2.84,0,0,0-2.58-.09,4.23,4.23,0,0,0-2,2.23,3.83,3.83,0,0,1-2.16,2.09,9.88,9.88,0,0,1-7.94.31c-.89-.4-1.49-.73-2-1-1-.52-.95-.52-3.14.22-3.43,1.16-6.07-.26-10.1-2.42q-1.17-.65-2.58-1.38c-3.12-1.61-3.73-1.33-4.85-.82a9.28,9.28,0,0,1-3.65,1c-1.84.12-3.27,1.57-4.92,3.25s-3.53,3.58-6.2,4.43c-5.9,1.87-8.23-.81-9.13-2.8-.3.18-.71.48-1,.7a8.31,8.31,0,0,1-3.31,1.74c-1.72.3-3.12-.52-4.62-1.38a18.53,18.53,0,0,0-4-1.85c-1.72-.51-2.27-.08-3.39.76a9.53,9.53,0,0,1-4.4,2.07c-4.9.88-10.69-3.24-15.75-7.17-2.83-2.19-7.07-.68-10.81.65a21.61,21.61,0,0,1-4.73,1.33c-1.4.14-4.15,2.64-6.58,4.85-3.82,3.48-7.43,6.74-10.27,5.9-3.06-.91-5,.36-8.92,2.9l-1.49,1A18,18,0,0,1,37.77,239.66Z"/>
      <path class="cls-1" d="M113.49,264.06h0a1.17,1.17,0,0,1-1-.54L83.28,219a1.2,1.2,0,0,1,2-1.32l28.28,43.13c5.19-6.6,28.1-34.84,44.93-40.56a1.2,1.2,0,1,1,.77,2.27c-18,6.11-44.56,40.73-44.83,41.08A1.17,1.17,0,0,1,113.49,264.06Z"/>
      <path class="cls-1" d="M84.46,218.6c-3.85.53-7.93,2.71-10.5,3-2,.21-5.24,3.33-8.4,6.18v11c0,4.39-.2,7.32,13.27,9.59a260,260,0,0,0,27.11,3Z"/>
      <path class="cls-1" d="M145,311.53c-40.18,0-62.62-11.31-80.67-22.22C45.56,278,45.56,266.54,45.56,256.47c0-13.2,9.64-13.64,21.85-14.19L93.67,240a2.39,2.39,0,1,1,.41,4.77l-26.36,2.29c-13.86.63-17.36,1.64-17.36,9.41,0,9.66,0,18.79,16.44,28.73,15.41,9.32,41.23,24.92,95.74,20.85,49.5-3.69,71.71-19.41,84.12-30.92s18.1-22,18.61-34.63a3.88,3.88,0,0,0-1.55-3.25,4.19,4.19,0,0,0-3.78-.65l-.34.09L222.24,243a2.4,2.4,0,1,1-.8-4.73L258.65,232a8.94,8.94,0,0,1,8,1.45,8.58,8.58,0,0,1,3.44,7.26c-.71,17.76-11.14,29.62-20.14,38-12.93,12-36,28.38-87,32.19Q153.39,311.55,145,311.53Z"/>
      <path class="cls-1" d="M237.68,320.88c1,0,1.88.5,2.51,2a39.79,39.79,0,0,1,1.8,5l-14.39,13c-3.43-5.92-3.43-6.87-3.43-6.87a7.27,7.27,0,0,1,2.39-4.27c2.14-1.86,6.53-6.53,8-7.6a5.83,5.83,0,0,1,3.12-1.29Zm0-1.6h0a7.11,7.11,0,0,0-4.06,1.6,57.63,57.63,0,0,0-4.46,4.18c-1.35,1.33-2.74,2.71-3.65,3.51a8.9,8.9,0,0,0-2.93,5.29,1.09,1.09,0,0,0,0,.18c0,.34,0,1.38,3.64,7.67a1.58,1.58,0,0,0,1.14.78,1,1,0,0,0,.25,0,1.59,1.59,0,0,0,1.07-.41l14.39-13a1.57,1.57,0,0,0,.48-1.57,42.15,42.15,0,0,0-1.87-5.23,4.25,4.25,0,0,0-4-3Z"/>
      <path class="cls-1" d="M239.36,366.29a.86.86,0,0,1-.46-.14L237.19,365a.77.77,0,0,1-.19-.17l0-.06h0a.78.78,0,0,1-.13-.53l.27-2.39c.32-1.05.89-3.72-.29-4.43-1.89-1.14-1.63-3.32-1.34-4.44a5,5,0,0,1-2.1-4.85c.09-1-.09-1.23-.09-1.23a.41.41,0,0,0-.2,0c-1.37,0-2.2-2.11-3.55-6.84a.8.8,0,1,1,1.53-.44c.37,1.3,1.51,5.27,2.18,5.72a1.49,1.49,0,0,1,1.22.51,3.15,3.15,0,0,1,.5,2.46,3.45,3.45,0,0,0,1.8,3.6.79.79,0,0,1,.41,1s-.92,2.32.47,3.15c2.48,1.49,1.17,5.66,1,6.14l0,.23a29,29,0,0,0,5.31-8.63,106.5,106.5,0,0,0,6.3-31.65q.07-1.47.15-2.28a17,17,0,0,1,6.37-11.74,10.6,10.6,0,0,1,8.62-1.88,8.29,8.29,0,0,1,5.68,4.1c2.87,4.93,2.33,13.92-1.55,26-5.51,17.13-13.18,27.33-13.25,27.43a.81.81,0,0,1-.53.31l-16.26,2.26Zm-.39-2,.59.41,15.61-2.18c1.21-1.68,7.88-11.35,12.82-26.69,3.73-11.62,4.32-20.16,1.68-24.69a6.73,6.73,0,0,0-4.62-3.34,9.09,9.09,0,0,0-7.35,1.62A15.33,15.33,0,0,0,252,320c-.06.52-.1,1.26-.16,2.21a108,108,0,0,1-6.39,32.11C245.33,354.59,243,360.79,239,364.25Z"/>
      <path class="cls-1" d="M248,357.26c-1.74-.33,1.26-7,2.06-9a60,60,0,0,0,3.1-15.19c.2-5.6,1.6-21.3,9.59-20.7s5.68,9.92,3.4,16.8c-4.6,13.89-8.89,24.39-9.29,25.69s-1.9,2.89-5.1,2.9A14.34,14.34,0,0,1,248,357.26Z"/>
      <path class="cls-1" d="M242.59,333.94h-.11a.82.82,0,0,1-.57-.37l-1.8-2.9a.8.8,0,0,1,1.36-.84l1.25,2c1-1.12,2.58-3.34,2.09-5.42-.36-1.52-.85-3-1.32-4.48a37.16,37.16,0,0,1-1.85-7.44,15.09,15.09,0,0,1,1.59-9.31,11.77,11.77,0,0,1,8.34-5.49,18.3,18.3,0,0,1,6.55.08,16.35,16.35,0,0,1,7.88,3.81,21.52,21.52,0,0,1,5.42,7.41.79.79,0,1,1-1.48.58,19.71,19.71,0,0,0-5-6.76,14.83,14.83,0,0,0-7.14-3.47,16.52,16.52,0,0,0-6-.08,10.22,10.22,0,0,0-7.24,4.73,13.51,13.51,0,0,0-1.37,8.33,34.41,34.41,0,0,0,1.77,7.11c.49,1.49,1,3,1.36,4.62.89,3.81-3.07,7.51-3.24,7.67A.83.83,0,0,1,242.59,333.94Z"/>
      <g>
        <path class="cls-1" d="M246.59,326.15c.9,3.81-3.07,7.51-3.24,7.67a.83.83,0,0,1-.54.21h-.11a.82.82,0,0,1-.57-.37l-1.71-2.76-9.31,8.53c.06.08.15.12.17.22.38,1.3,1.51,5.27,2.18,5.72a1.56,1.56,0,0,1,1.23.51,3.19,3.19,0,0,1,.49,2.46,3.46,3.46,0,0,0,1.81,3.6.8.8,0,0,1,.4,1s-.91,2.32.47,3.15c2.48,1.49,1.17,5.66,1,6.14l0,.23a29,29,0,0,0,5.31-8.63,106.61,106.61,0,0,0,6.3-31.65,1.69,1.69,0,0,1,0-.23,22.23,22.23,0,0,1-5.9-2.6c.22.72.42,1.44.66,2.18C245.72,323,246.22,324.56,246.59,326.15Z"/>
        <path class="cls-1" d="M238.33,363.56l.15-1.37c.16-.52,1.38-4.43-.83-5.75-1.66-1-.68-3.53-.63-3.64a.4.4,0,0,0-.2-.51,3.83,3.83,0,0,1-2-4,2.86,2.86,0,0,0-.39-2.15,1.14,1.14,0,0,0-.91-.38h-.13l-.11-.08c-.4-.26-1-1.17-2.34-5.94h0s-.07,0-.11-.09l-.21-.29,9.92-9.1,2,3.17a.38.38,0,0,0,.29.18.43.43,0,0,0,.32-.1c.16-.15,4-3.71,3.12-7.28h0c-.37-1.58-.87-3.1-1.35-4.58-.17-.54-.33-1.06-.49-1.59l-.48-1.6.9.55a21.68,21.68,0,0,0,5.79,2.55l.31.08,0,.57A107,107,0,0,1,244.54,354a29.66,29.66,0,0,1-5.41,8.77ZM233.61,345a2,2,0,0,1,1.37.64,3.49,3.49,0,0,1,.59,2.76,3.1,3.1,0,0,0,1.58,3.21,1.19,1.19,0,0,1,.61,1.53s-.78,2,.3,2.66c1.93,1.15,1.82,3.7,1.52,5.29a31.4,31.4,0,0,0,4.21-7.35,105.51,105.51,0,0,0,6.26-31.44,22.28,22.28,0,0,1-4.81-2c.12.39.24.79.37,1.19.49,1.5,1,3,1.37,4.64h0c.93,3.95-2.92,7.65-3.36,8.06a1.19,1.19,0,0,1-1,.31,1.21,1.21,0,0,1-.86-.56l-1.46-2.35-8.68,8s0,0,0,0C232.85,343.67,233.41,344.7,233.61,345Z"/>
      </g>
      <g>
        <path class="cls-1" d="M120.05,334.55l1.88,1.21c2,1.06,4.65,2.27,6.66,3.17,7.52-12.58,2.27-26.62,0-32.69l-9,3.39C122.76,318,125,326.88,120.05,334.55Z"/>
        <path class="cls-1" d="M114.77,333.14c1.16,0,2.75.83,4.63,2.09,2.8,1.87,10.67,5.2,11.73,5.73s2.54,1.07,0,5.33l-2,3.47L109.67,339c2.27-3.2,2.67-3.86,3.74-5.2a1.63,1.63,0,0,1,1.36-.62Zm0-1.6h0a3.22,3.22,0,0,0-2.61,1.22c-.75.94-1.2,1.58-2.09,2.86l-1.7,2.42a1.6,1.6,0,0,0,.53,2.32l19.46,10.8a1.64,1.64,0,0,0,.77.2,1.61,1.61,0,0,0,1.39-.8l2-3.47c1.41-2.38,1.87-4,1.48-5.38a3.54,3.54,0,0,0-2.05-2.13c-.36-.18-1-.46-1.86-.85a95.11,95.11,0,0,1-9.8-4.83c-2.48-1.66-4.13-2.36-5.52-2.36Z"/>
      </g>
      <path class="cls-1" d="M144.86,389.74h-6.53c-5.93,0-8.25-1.68-8.34-1.76-1.34-.8-29.94-18.75-33.45-21.32-1.73-1.26-2.54-2.24-2.68-3.24s.49-2,1.25-3l.2-.26c1.35-1.77,2.6-3.26,3.18-3.93a3.12,3.12,0,0,1,.81-3.09,2.22,2.22,0,0,0,.64-1.29c0-2.46,4.56-4.05,5.08-4.22a3.71,3.71,0,0,0,.25-.95,5.91,5.91,0,0,1,.34-1.28,1.4,1.4,0,0,1,1.13-.91v-.1a4.9,4.9,0,0,1,3.93-4.4.83.83,0,0,1,.87.73.8.8,0,0,1-.73.86,3.38,3.38,0,0,0-2.47,2.81c0,1.05-.4,1.58-1.26,1.67a3.82,3.82,0,0,0-.24.92c-.15.82-.35,1.84-1.31,2.16-1.67.56-4,1.86-4,2.71a3.71,3.71,0,0,1-1,2.26c-.59.77-.83,1.14-.44,1.91a.79.79,0,0,1-.12.89s-1.63,1.86-3.43,4.22l-.2.27c-.64.83-1,1.32-.94,1.75s.76,1.25,2,2.18c3.48,2.55,32,20.44,33.39,21.29.08,0,2.14,1.48,7.45,1.48h6c1-2.26,5-12.38,1.31-18.37-2.66-4.35-6.91-6.55-12.65-6.55h-.1a3.1,3.1,0,0,1-2-.57,15,15,0,0,0-4.22-1.73c-4.15-1.21-4.58-3.82-4.61-4.59a2.92,2.92,0,0,1,1.73-2.92,3.5,3.5,0,0,0,2.28-3.54.79.79,0,0,1,.68-.9.82.82,0,0,1,.9.68,5.07,5.07,0,0,1-3.29,5.25,1.4,1.4,0,0,0-.7,1.37c.06,1.34,1.35,2.5,3.46,3.12a15.68,15.68,0,0,1,4.62,1.91,1.54,1.54,0,0,0,1.09.32c8,0,12.13,4,14.17,7.31,4.57,7.48-1.18,19.83-1.43,20.36A.8.8,0,0,1,144.86,389.74Z"/>
      <path class="cls-1" d="M144.86,389.74a.78.78,0,0,1-.44-.13L97.8,358.47a.8.8,0,1,1,.89-1.33l46.61,31.14a.79.79,0,0,1-.44,1.46Z"/>
      <path class="cls-1" d="M126.11,377.21H126a.79.79,0,0,1-.67-.91c.47-3.3,3.75-8,8.39-10.24a11.76,11.76,0,0,1,11.56.6.8.8,0,0,1,.28,1.09.81.81,0,0,1-1.1.28,10.27,10.27,0,0,0-10-.53c-4.11,2-7.09,6.21-7.5,9A.8.8,0,0,1,126.11,377.21Z"/>
      <g>
        <path class="cls-1" d="M99.73,356.14c-.39-.77-.15-1.14.44-1.91a3.71,3.71,0,0,0,1-2.26c0-.86,2.33-2.15,4-2.71,1-.32,1.16-1.34,1.31-2.16a3.82,3.82,0,0,1,.24-.92c.86-.09,1.26-.62,1.26-1.67a3.38,3.38,0,0,1,2.47-2.81c.08,0,.12-.07.19-.09L125.68,350a3.51,3.51,0,0,1-2.28,3.52,2.89,2.89,0,0,0-1.72,2.92c0,.77.45,3.38,4.6,4.59a14.8,14.8,0,0,1,4.22,1.73,3.1,3.1,0,0,0,2,.57h0a15.21,15.21,0,0,1,7.83,1.77,12,12,0,0,0-7,1.07,16.19,16.19,0,0,0-8.11,9.05L99,357.71c.33-.39.58-.67.58-.68A.81.81,0,0,0,99.73,356.14Z"/>
        <path class="cls-1" d="M125.42,375.82l-27-18,.28-.35c.35-.4.6-.7.61-.7a.41.41,0,0,0,0-.43c-.49-1-.14-1.52.48-2.33a3.31,3.31,0,0,0,.89-2c0-1.26,2.87-2.62,4.26-3.08.69-.23.88-.95,1-1.86a5.14,5.14,0,0,1,.27-1l.1-.2.23,0c.54,0,.9-.29.9-1.27a3.77,3.77,0,0,1,2.77-3.2l.32-.15L126,349.72l0,.2a3.91,3.91,0,0,1-2.53,3.94,2.52,2.52,0,0,0-1.46,2.53c0,.71.42,3.09,4.31,4.23a15.16,15.16,0,0,1,4.32,1.77,2.69,2.69,0,0,0,1.79.51h.42a15.55,15.55,0,0,1,7.61,1.82l2,1.1-2.24-.36a11.62,11.62,0,0,0-6.78,1,15.85,15.85,0,0,0-7.91,8.81ZM99.63,357.63,125,374.57a16.88,16.88,0,0,1,8.16-8.79,12.54,12.54,0,0,1,5-1.24,15.59,15.59,0,0,0-5.65-.84,3.5,3.5,0,0,1-2.22-.63,14.24,14.24,0,0,0-4.12-1.68c-4.41-1.29-4.86-4.12-4.89-5a3.29,3.29,0,0,1,2-3.31,3.15,3.15,0,0,0,2-2.9l-14.7-8.16a.38.38,0,0,1-.16,0,3,3,0,0,0-2.1,2.41c0,1.16-.46,1.84-1.37,2,0,.17-.09.4-.13.6-.16.86-.4,2.11-1.58,2.5-1.92.64-3.72,1.85-3.72,2.33a4.07,4.07,0,0,1-1.05,2.5c-.59.77-.67.95-.41,1.5h0a1.2,1.2,0,0,1-.18,1.33S99.78,357.44,99.63,357.63Z"/>
      </g>
      <path class="cls-1" d="M263.44,217.56c0-3.31-.37-2.29-1.52-5.9a34.85,34.85,0,0,1-10.43-.48,18.6,18.6,0,0,0-11.73,1.67,79.24,79.24,0,0,0-10.4,3.12c-3.73,1.6-5.86,0-9.06.4s-5.2,3.2-6.46,5.6-4.74.4-7.43,1.2-6.9,3.6-7.83,4.8-4.19-4.4-4.19-4.4a52.88,52.88,0,0,0-6.48-3.73c-3.6-1.73-6,1.73-6.29,2.93s-4.9,3.2-8.45,1.6-2.45-2-6-.8c-2.8,1-5-.13-8.63-2.07-11.77,4.18-26.73,19.69-36.12,30.48q15.09.24,33-.75a27.13,27.13,0,0,1-1.27-4.06,1.19,1.19,0,0,1,.35-1.13c3-2.79,12-6.69,14.06-7.26a1.29,1.29,0,0,1,.39,0,1.37,1.37,0,0,1,.35.08c.3.12,1.91.88,4.32,4.68a4.39,4.39,0,0,1,.61,4.29,5,5,0,0,1-2.25,2.28c9.75-.82,20-1.9,30.92-3.31,19.16-2.47,37.75-6.38,55.57-14C258.45,232.74,263.44,227.88,263.44,217.56Z"/>
      <g>
        <path class="cls-1" d="M171.11,279.34a5.28,5.28,0,0,1-.4-1.37,5,5,0,0,0-.51,1,4.8,4.8,0,0,0,2.9,6.14l2.09.77A36.74,36.74,0,0,1,171.11,279.34Z"/>
        <path class="cls-1" d="M220.51,307.62c-12.49-14.85-23.14-22.46-34.79-27.76.69,2.11,1.11,4,.67,4.56s-1.19.74-2.29.79c-2.25-.17-4.65-4.67-6.1-8.52l-1.67-.62a5,5,0,0,0-1.14-.24,30.61,30.61,0,0,0,4,8.51,5.26,5.26,0,0,1-2.84,2c12.65,4.92,23.55,11.72,36.76,27.43.07.09,7.49,9.07,11.23,15.8a4.93,4.93,0,0,0,.58.78,7.9,7.9,0,0,1,1.09-1.18c.94-.82,2.33-2.2,3.7-3.56.77-.77,1.51-1.49,2.19-2.14A152.38,152.38,0,0,0,220.51,307.62Z"/>
      </g>
      <path class="cls-1" d="M195.57,258.53c-.7-3.81-6.75-4.58-11.58-5.15-1.28-.16-2.4-.32-3.2-.48-2-.45-4.22-2.18-5.85-3.94-11.95-7.52-16.69,7.53-16.51,7.58a70.67,70.67,0,0,1-2.14,10.75l-.19.7c-.83,3.11-1.79,6.59-.8,9.7a7.19,7.19,0,0,0,.77,1.66c1.18,1.92,5.63,9.66,7,10a3.8,3.8,0,0,0,.58.06,4.76,4.76,0,0,0,2.78-.8,2.17,2.17,0,0,0,.35.39,4.3,4.3,0,0,0,2.69,1.25,5.15,5.15,0,0,0,1-.07,6,6,0,0,0,3.55-2.33,3.68,3.68,0,0,0,1.38.92c.16,0,.32,0,.48.07,1.66.09,3.29-.83,4.93-2.69a5.42,5.42,0,0,0,3.1,1.47H184a4.7,4.7,0,0,0,4.32-1.73c1.5-2-1.34-9.59-2.78-13.59-.93-2.56-2-5.21-2.82-7.17a12.33,12.33,0,0,0,2.4.45c2.94.19,6.53-.7,8.22-2A5.23,5.23,0,0,0,195.57,258.53Zm-3.74,3.13c-1.92,1.5-6.78,2.27-10.91-.1a0,0,0,0,0,0,0h0a1,1,0,0,0-.83-.09,1.22,1.22,0,0,0-.87,1.47c0,.06,2.37,5.31,4.13,10.2,1.09,3.07,4.06,10.05,3.1,11.29-.45.61-1.18.77-2.27.8-3.52-.25-7.39-11.06-7.49-13.53a1.2,1.2,0,1,0-2.39.1,32.13,32.13,0,0,0,5,12.57c-1,1.15-2.21,2.24-3.36,2.05s-4.26-5.95-4.74-7a7.78,7.78,0,0,1,.07-5.92,1.21,1.21,0,0,0-2.08-1.25,10.34,10.34,0,0,0-.19,8.16,37,37,0,0,0,3.51,5.63c0,.06-.09.1-.12.16a4,4,0,0,1-2.28,1.66,1.81,1.81,0,0,1-1.63-.57c-2.11-2-5.95-11.45-4.51-13.88a1.2,1.2,0,1,0-2-1.25c-1.67,2.75.67,10.33,3.16,14.55a2.14,2.14,0,0,1-1.4.35c-.71-.16-4.71-7.58-5.54-8.92a9,9,0,0,1-.51-1.12c-.77-2.43.1-5.57.83-8.32l.19-.73a66.61,66.61,0,0,0,2.24-11.42,16.55,16.55,0,0,0,3.94-2.05,14.2,14.2,0,0,1,3.52-1.85,12.57,12.57,0,0,0,5-1.89c1.92,2,4.48,4,7,4.54.89.19,2.08.35,3.45.51,3.39.42,9.12,1.15,9.54,3.23A2.93,2.93,0,0,1,191.83,261.66Z"/>
      <path class="cls-2" d="M193.24,259a2.93,2.93,0,0,1-1.41,2.69c-1.92,1.5-6.78,2.27-10.91-.1a0,0,0,0,0,0,0h0a1,1,0,0,0-.83-.09,1.22,1.22,0,0,0-.87,1.47c0,.06,2.37,5.31,4.13,10.2,1.09,3.07,4.06,10.05,3.1,11.29-.45.61-1.18.77-2.27.8-3.52-.25-7.39-11.06-7.49-13.53a1.2,1.2,0,1,0-2.39.1,32.13,32.13,0,0,0,5,12.57c-1,1.15-2.21,2.24-3.36,2.05s-4.26-5.95-4.74-7a7.78,7.78,0,0,1,.07-5.92,1.21,1.21,0,0,0-2.08-1.25,10.34,10.34,0,0,0-.19,8.16,37,37,0,0,0,3.51,5.63c0,.06-.09.1-.12.16a3.92,3.92,0,0,1-2.27,1.66,1.82,1.82,0,0,1-1.64-.57c-2.11-2-5.95-11.45-4.51-13.88a1.2,1.2,0,1,0-2-1.25c-1.67,2.75.67,10.33,3.16,14.55a2.14,2.14,0,0,1-1.4.35c-.71-.16-4.71-7.58-5.54-8.92a9,9,0,0,1-.51-1.12c-.77-2.43.1-5.57.83-8.32l.19-.73a66.61,66.61,0,0,0,2.24-11.42,16.55,16.55,0,0,0,3.94-2.05,14.2,14.2,0,0,1,3.52-1.85,12.51,12.51,0,0,0,5-1.89c1.92,2,4.48,4,7,4.54.89.19,2.08.35,3.45.51C187.09,256.16,192.82,256.89,193.24,259Z"/>
      <path class="cls-1" d="M168.26,252.58a12.55,12.55,0,0,0,5-1.89,14.26,14.26,0,0,0,2.08-2.43,5.55,5.55,0,0,0-.7-5.41c-2.47-3.9-4.26-4.89-4.9-5.15a2.56,2.56,0,0,0-.7-.16,2.2,2.2,0,0,0-.8.1,24.53,24.53,0,0,0-2.72,1c-5.15-9.6-31.44-58.89-35.12-68.52-1.12-3-2.37-5.88-3.55-8.67-2-4.57-4.93-11.48-4.51-13.43a4.79,4.79,0,0,0-8.7-4c-2.5,5.21.54,12.28,4.38,21.24,1.12,2.65,2.33,5.47,3.42,8.31,3.9,10.21,29.85,58.86,35.44,69.35a20.78,20.78,0,0,0-3.19,2.27,2.42,2.42,0,0,0-.71,2.28c.1.51,1.15,5,3.26,7.77a3.94,3.94,0,0,0,2.21,1.34,3.76,3.76,0,0,0,2.4-.06,16.55,16.55,0,0,0,3.94-2.05A14.33,14.33,0,0,1,168.26,252.58Zm-9,1.75a1.6,1.6,0,0,1-1.12-.6c-1.82-2.37-2.81-6.82-2.81-6.82,2.72-2.52,11.45-6.39,13.56-7,0,0,1.41.54,3.74,4.19s-1.31,5.47-4.73,6.11C165,250.75,161.39,254.46,159.21,254.33Z"/>
      <path class="cls-2" d="M167.85,250.24c-2.88.51-6.46,4.22-8.64,4.09a1.6,1.6,0,0,1-1.12-.6c-1.82-2.37-2.81-6.82-2.81-6.82,2.72-2.52,11.45-6.39,13.56-7,0,0,1.41.54,3.74,4.19S171.27,249.6,167.85,250.24Z"/>
      <path class="cls-1" d="M259.64,142.24a134,134,0,0,0-18.78-22.13,12,12,0,1,0-.77,6,128.45,128.45,0,0,1,15.51,18.77c4.64,7.25,6.26,13,4.82,17.16-1.07,3.07-4,5.44-8.64,7-22.38,7.67-60.86,10-83.86,11.36-6.54.39-11.71.7-15.29,1.05-15.18,1.47-58.17,3.75-88.78,2.39-4.86-.22-13.92-.62-18.49-5-5.52-5.3-4.38-16.81,3.39-34.19,5-11.13,14.6-24.17,24.24-33.21A127,127,0,0,1,96.9,94c17-9.56,44-19.44,75.93-12.26a119.49,119.49,0,0,1,31.62,12L206.56,90a123.89,123.89,0,0,0-32.78-12.48c-40.59-9.11-77.21,7.17-101.46,28.7h0l-.26.24-1.27,1.14-.74.68a118.11,118.11,0,0,0-15.46,17.43,94.28,94.28,0,0,0-10.21,17C41.13,149.92,31.29,172,42,182.28c5.87,5.64,16.1,6.1,21.6,6.34,6.65.3,13.86.43,21.26.43,26.94,0,56.19-1.67,68.19-2.83,3.5-.34,8.88-.67,15.12-1,23.24-1.4,62.13-3.73,85.12-11.61,6.13-2.11,10-5.47,11.62-10C266.9,158,265.12,150.79,259.64,142.24ZM229,131.18a9.6,9.6,0,1,1,9.6-9.6A9.6,9.6,0,0,1,229,131.18Z"/>
      <g>
        <path class="cls-1" d="M0,96.94l0-1.35c0-.58.13-.73.69-.69l5.53.59c.9.08,1.25.39,1.26,1.24l0,2.22c0,1-.44,1.22-1.22,1L1,98.21A1.17,1.17,0,0,1,0,96.94Zm.09,5,0-1.35c0-.59.14-.73.69-.69l5.54.58c.89.09,1.24.39,1.25,1.24l0,2.23c0,1-.44,1.22-1.22,1l-5.33-1.7A1.16,1.16,0,0,1,.11,102Z"/>
        <path class="cls-1" d="M1.64,78.86c.7-3.51,2.14-5.3,4.65-6,.75-.19,1.07.07,1.21.84l.55,2.58c.15.7,0,.94-.76,1.18a2.47,2.47,0,0,0-1.71,2.15c-.32,1.62,0,2.34.78,2.5,1,.21,1.52-1.15,2.07-2.82.93-2.67,2.31-6.1,6.8-5.21,3.49.7,4.78,4.24,3.94,8.45-.71,3.53-2.41,5.76-5.06,6.17-.77.12-1.06-.16-1.18-.9l-.36-2.4c-.1-.76,0-1.07.8-1.29a2.82,2.82,0,0,0,1.8-2.43c.31-1.59.17-2.61-.85-2.81s-1.43,1-2,2.49c-.93,2.71-2.21,6.5-6.81,5.58C2.41,86.35.73,83.4,1.64,78.86Z"/>
        <path class="cls-1" d="M9.27,55.88c2.05-4.31,5.53-5.6,9.31-3.8L22.52,54c3.78,1.8,5,5.31,2.93,9.62s-5.54,5.62-9.32,3.83l-3.94-1.87C8.41,63.73,7.21,60.21,9.27,55.88ZM13.1,57.7c-.73,1.53-.43,2.75,1,3.4l4.33,2.06c1.38.66,2.52.12,3.24-1.41s.42-2.72-1-3.38l-4.33-2.06C15,55.66,13.81,56.19,13.1,57.7Z"/>
        <path class="cls-1" d="M28.26,30.35,39.92,40c.58.48.61.85.13,1.43l-1.74,2.11a1,1,0,0,1-1,.45l-6.79-.79a17,17,0,0,1-5.2-1.55l-.13.15A24.09,24.09,0,0,1,30.5,45.2l3,2.52c.57.48.61.86.11,1.45l-1.56,1.89c-.49.59-.87.63-1.44.15L19,41.53c-.57-.48-.61-.85-.11-1.45l1.82-2.2a1,1,0,0,1,1-.47l7.31.9a24.57,24.57,0,0,1,4.7,1.26l.13-.14a17.1,17.1,0,0,1-5.41-3.08l-3.06-2.53c-.57-.48-.63-.84-.13-1.43l1.58-1.9C27.31,29.91,27.68,29.87,28.26,30.35Z"/>
        <path class="cls-1" d="M47.44,14.85l8.91,12.27c.44.6.38,1-.23,1.42l-2.21,1.6a1,1,0,0,1-1.09.2l-6.39-2.46a16.89,16.89,0,0,1-4.65-2.78l-.16.11a23.86,23.86,0,0,1,4.32,4.59L48.25,33c.45.61.39,1-.24,1.43l-2,1.44c-.63.46-1,.4-1.44-.21l-8.9-12.27c-.44-.6-.38-1,.24-1.43l2.32-1.68a1,1,0,0,1,1.1-.2l6.86,2.68a24.43,24.43,0,0,1,4.25,2.39l.15-.11a17.26,17.26,0,0,1-4.48-4.32L43.8,17.5c-.44-.61-.4-1,.23-1.42l2-1.45C46.63,14.19,47,14.24,47.44,14.85Z"/>
        <path class="cls-1" d="M70.53,4.37,68.82,15.28l2.07,5.24c.28.7.15,1-.57,1.32l-2.55,1c-.72.28-1.06.13-1.34-.57L64.36,17l-8.67-6.81c-.52-.4-.6-.86.1-1.14L58.49,8c1.13-.45,1.46-.52,2.2.09l4.22,3.65.67-5.57c.12-1,.41-1.13,1.52-1.56l2.59-1C70.36,3.35,70.62,3.74,70.53,4.37Z"/>
        <path class="cls-1" d="M81.78,8.52l-1.34.21c-.58.1-.74,0-.78-.58l-.2-5.58c0-.88.21-1.26,1.05-1.4l2.2-.35c1-.15,1.27.27,1.12,1.05L82.9,7.41A1.16,1.16,0,0,1,81.78,8.52Zm5-.79-1.34.21c-.57.1-.74,0-.78-.58l-.2-5.59c0-.87.22-1.25,1-1.39L87.68,0c1-.15,1.27.27,1.13,1.05l-.94,5.54A1.16,1.16,0,0,1,86.75,7.73Z"/>
      </g>
    </g>
  </g>
</svg>
