<svg xmlns="http://www.w3.org/2000/svg" viewBox="0 0 23.56 36.95">
  <defs>
    <style>
      .cls-1 {
        fill: #337253;
      }

      .cls-2 {
        fill: #fff8d4;
      }
    </style>
  </defs>
  <title>sunset-front-left</title>
  <g id="Layer_2" data-name="Layer 2">
    <g id="Layer_1-2" data-name="Layer 1">
      <g>
        <path class="cls-1" d="M18.24,26.63c.91-3.1,1.79-6.21,2.62-9.33C21.77,14,23.07,10.4,23.51,7c0-.07,0-.12,0-.18A6.61,6.61,0,0,0,19.38.27C15-1.38,11.43,4.86,10,8.07s-.91,7.87-.56,10.61l.06.52a5.85,5.85,0,0,0-3,.31c-2.39.9-4.5,3.38-6.28,7.34a2.61,2.61,0,0,0,0,2.07c.85,2.19,4.48,3.87,5.19,4.19l8.29,3.73a1.33,1.33,0,0,0,.5.11,1.08,1.08,0,0,0,.53-.11,1.29,1.29,0,0,0,.7-.77C16.41,32.94,17.33,29.78,18.24,26.63ZM6.92,31a5.72,5.72,0,0,1,2-3.43,1.69,1.69,0,0,1,1-.4.82.82,0,0,0,.39-1.59,2.86,2.86,0,0,0-2.17.58A6.9,6.9,0,0,0,5.42,30.3C4.19,29.64,2.83,28.71,2.55,28,4,24.6,5.69,22.52,7.41,21.89a3.38,3.38,0,0,1,2.71.12,1.43,1.43,0,0,0,1.4-.12c.78-.58.68-1.45.42-3.53-.3-2.46-.84-6.6.35-9.26a16.57,16.57,0,0,1,2.28-3.65,16.8,16.8,0,0,1,2.09-2.36,2,2,0,0,1,1.15-.5c1.13-.07,2.1,1.05,2.66,1.89A3,3,0,0,1,21,6.4a31.89,31.89,0,0,1-1.27,5.23c-.46,1.79-.93,3.6-1.42,5.41-.88,3.23-1.78,6.45-2.73,9.67-.13.47-2.29,7.2-2.17,7.25Z"/>
        <path class="cls-2" d="M13.43,34,6.92,31a5.72,5.72,0,0,1,2-3.43,1.69,1.69,0,0,1,1-.4.82.82,0,0,0,.39-1.59,2.86,2.86,0,0,0-2.17.58A6.9,6.9,0,0,0,5.42,30.3C4.19,29.64,2.83,28.71,2.55,28,4,24.6,5.69,22.52,7.41,21.89a3.38,3.38,0,0,1,2.71.12,1.43,1.43,0,0,0,1.4-.12c.78-.58.68-1.45.42-3.53-.3-2.46-.84-6.6.35-9.26a16.57,16.57,0,0,1,2.28-3.65,16.8,16.8,0,0,1,2.09-2.36,2,2,0,0,1,1.15-.5c1.13-.07,2.1,1.05,2.66,1.89A3,3,0,0,1,21,6.4a31.89,31.89,0,0,1-1.27,5.23c-.46,1.79-.93,3.6-1.42,5.41-.88,3.23-1.78,6.45-2.73,9.67C15.47,27.18,13.31,33.91,13.43,34Z"/>
      </g>
    </g>
  </g>
</svg>
