<svg xmlns="http://www.w3.org/2000/svg" viewBox="0 0 240.5 372.29">
  <defs>
    <style>
      .cls-1 {
        fill: #337253;
      }
    </style>
  </defs>
  <title>sunset-donna</title>
  <g id="Layer_2" data-name="Layer 2">
    <g id="Layer_1-2" data-name="Layer 1">
      <g>
        <path class="cls-1" d="M.08,80.43l.37-1.3c.15-.56.33-.66.86-.47l5.13,2.15c.84.33,1.08.72.85,1.54l-.6,2.15c-.27,1-.77,1-1.45.57L.62,81.92A1.17,1.17,0,0,1,.08,80.43Zm1.36-4.85.36-1.3c.16-.56.34-.66.86-.47L7.8,76c.83.33,1.08.73.85,1.54l-.6,2.15c-.27.95-.77,1-1.45.57L2,77.07A1.16,1.16,0,0,1,1.44,75.58Z"/>
        <path class="cls-1" d="M17.77,55.2,21,56.85c3.71,1.9,4.83,5.46,2.66,9.7L21,71.81c-.35.69-.71.81-1.38.47l-13.5-6.9c-.67-.34-.78-.7-.43-1.39l2.69-5.26C10.52,54.48,14,53.29,17.77,55.2Zm-5.72,5.61-.91,1.77,7.76,4,.91-1.77c.89-1.75.48-2.91-1-3.69L15.65,59.5C14.12,58.72,12.94,59.06,12.05,60.81Z"/>
        <path class="cls-1" d="M21.38,38.38c3.06-3.66,6.76-4,10-1.35l3.34,2.79c3.21,2.69,3.49,6.39.43,10s-6.77,4.06-10,1.37L21.8,48.45C18.58,45.76,18.3,42.06,21.38,38.38Zm3.25,2.72c-1.09,1.3-1.1,2.55.07,3.53l3.68,3.08c1.17,1,2.4.74,3.49-.56s1.08-2.53-.09-3.51l-3.67-3.08C26.94,39.59,25.7,39.81,24.63,41.1Z"/>
        <path class="cls-1" d="M45.69,18.24l9.15,12.08c.46.6.4,1-.19,1.43L52.46,33.4a1,1,0,0,1-1.08.21l-6.44-2.32a17.3,17.3,0,0,1-4.71-2.69l-.15.12a23.89,23.89,0,0,1,4.41,4.5l2.38,3.14c.45.6.4,1-.22,1.44L44.7,39.28c-.61.47-1,.41-1.44-.18L34.11,27c-.45-.6-.4-1,.22-1.44l2.27-1.72a1,1,0,0,1,1.11-.23l6.9,2.54a23.8,23.8,0,0,1,4.3,2.31l.16-.12a17.16,17.16,0,0,1-4.57-4.22L42.1,21c-.45-.6-.42-1,.2-1.42l2-1.5C44.86,17.59,45.24,17.64,45.69,18.24Z"/>
        <path class="cls-1" d="M67.49,7.3l6.16,13.85c.31.68.17,1-.52,1.34l-2.5,1.11a1,1,0,0,1-1.1,0l-5.74-3.72a17.1,17.1,0,0,1-4-3.7l-.18.08a24,24,0,0,1,3.27,5.39l1.6,3.6c.31.69.17,1-.53,1.35l-2.24,1c-.71.31-1.06.18-1.36-.51L54.21,13.2c-.3-.68-.17-1,.54-1.35l2.61-1.16a1,1,0,0,1,1.13,0l6.15,4A23.66,23.66,0,0,1,68.3,18l.17-.08A17.1,17.1,0,0,1,65,12.76L63.37,9.13c-.3-.69-.19-1,.52-1.35l2.26-1C66.83,6.48,67.18,6.61,67.49,7.3Z"/>
        <path class="cls-1" d="M94.63,17.44l-2.56.48c-1.24.24-1.65,0-2-.66l-.87-1.61-5.14,1-.22,1.82c-.1.78-.36,1.1-1.55,1.33l-2.5.47c-.73.14-.94-.17-.82-.85L81.61,3.27c.1-.74.38-.94,1.07-1.07l2.72-.51a1.09,1.09,0,0,1,1.38.55l8.36,14.09C95.5,16.93,95.35,17.3,94.63,17.44ZM84.88,6.27l-.23,0a13.18,13.18,0,0,1,.17,3.4l-.35,3,3-.56L86,9.5A15.64,15.64,0,0,1,84.88,6.27Z"/>
        <path class="cls-1" d="M100.82,7.58l-1.36,0c-.58,0-.73-.14-.69-.69l.59-5.56c.08-.87.39-1.22,1.24-1.23l2.22,0c1,0,1.22.44,1,1.2l-1.71,5.35A1.16,1.16,0,0,1,100.82,7.58Zm5-.09-1.35,0c-.59,0-.73-.14-.69-.7l.58-5.55c.09-.88.4-1.22,1.24-1.23l2.23,0c1,0,1.22.44,1,1.2l-1.71,5.35A1.16,1.16,0,0,1,105.85,7.49Z"/>
      </g>
      <g>
        <g>
          <g>
            <path class="cls-1" d="M92.18,151.05l-.57,1.86a1.5,1.5,0,0,0,1,1.88,1.41,1.41,0,0,0,.45.07,1.51,1.51,0,0,0,1.43-1.05l.58-1.87c.44-1.42,1-3.33,1.75-5.45-.15,2,.33,3.6,1.4,4,1.66.61,4.08-1.83,5.41-5.46s1.07-7.05-.58-7.66c-1-.38-2.39.44-3.58,2,2.55-6.1,5.76-11.54,9-10.69a4.3,4.3,0,0,1,2.93,2.07c1.53,2.88-.4,8.44-1.95,12.91L109,145c-.53,1.55-1.36,3.74-2,5.52l-.81,2.18a1.5,1.5,0,1,0,2.81,1l.81-2.15c.68-1.81,1.53-4,2.07-5.61l.46-1.36c1.82-5.24,3.88-11.18,1.81-15.22a1.5,1.5,0,0,0,.23-.33c1.88-3.79,2.58-4.43,5-4.57a1.55,1.55,0,0,0,1.47-1.65,1.58,1.58,0,0,0-1.64-1.47c-3.88.22-5.37,2-7.22,5.58-.16-.11-.35-.21-.53-.32a9.73,9.73,0,0,1,5.92-9.26,1.56,1.56,0,0,0-1.33-2.82,12.87,12.87,0,0,0-7.69,11,5.64,5.64,0,0,0-1.54.06,2.7,2.7,0,0,0,0-.28,10.59,10.59,0,0,1-.56-4.48,1.56,1.56,0,0,0-3.11-.31,13.8,13.8,0,0,0,.71,5.79,1.39,1.39,0,0,0,.28.49C98.44,130.86,94.66,143.05,92.18,151.05Z"/>
            <path class="cls-1" d="M81.7,160.13a5.64,5.64,0,0,1,4.15,2.72.06.06,0,0,0,.06,0,.08.08,0,0,0,.07-.08v0A4.29,4.29,0,0,0,84.77,160a5.14,5.14,0,0,0-2.93-1.42,5.84,5.84,0,0,0-3.08.74,4.73,4.73,0,0,0-2,2.23l0,0a.06.06,0,0,0,0,.07.08.08,0,0,0,.1,0A7.29,7.29,0,0,1,81.7,160.13Z"/>
            <path class="cls-1" d="M57.91,153a12.77,12.77,0,0,0-3.72,25,1.32,1.32,0,0,0,.33.05,1.14,1.14,0,0,0,.34-2.22,10.5,10.5,0,1,1,13.55-10,1.14,1.14,0,0,0,2.27,0A12.79,12.79,0,0,0,57.91,153Z"/>
            <path class="cls-1" d="M104.84,159.32a10.51,10.51,0,0,1,10.49,10.5,1.14,1.14,0,0,0,2.27,0,12.77,12.77,0,1,0-12.76,12.76,12.61,12.61,0,0,0,4.18-.7,1.12,1.12,0,0,0,.7-1.44,1.14,1.14,0,0,0-1.44-.7,10.5,10.5,0,1,1-3.44-20.42Z"/>
            <path class="cls-1" d="M72.4,172.57c-2.29,0-3.79,1.33-5.38,2.69a13.19,13.19,0,0,1-7.38,3.7,1.15,1.15,0,0,0-.93.77,1.17,1.17,0,0,0,.3,1.18,21.77,21.77,0,0,1,4,5.72l.46,1c1.73,3.65,3.89,8.2,9,8.2h0c5.06,0,6.76-2,8.91-4.49a33.32,33.32,0,0,1,2.4-2.59c3.74-3.55,11.56-7.58,11.64-7.62a1.59,1.59,0,0,0,.21-.15v0a1.08,1.08,0,0,0,.24-.28l0-.06a.89.89,0,0,0,.12-.4h0s0,0,0-.08a1.22,1.22,0,0,0,0-.27s0,0,0,0l-.07-.14a1,1,0,0,0-.12-.23l-.1-.11a1.66,1.66,0,0,0-.21-.16l-.13-.07a1.12,1.12,0,0,0-.26-.08.45.45,0,0,0-.11,0,25.61,25.61,0,0,0-3.82,0H91c-2.35-.34-3.27-1.73-4.33-3.35s-2.25-3.41-4.9-3.87c-1.84-.33-4.42,1.48-5.94,2.74A4.56,4.56,0,0,0,72.4,172.57Zm6.85,11.94-.43.33c-3.59,2.73-4.81,1.83-6.27.16a19.13,19.13,0,0,0-5-4.36,26.31,26.31,0,0,1,5.58.76,25.19,25.19,0,0,0,2.86.52,41.13,41.13,0,0,0,4.4.24c.74,0,1.45,0,2.13-.06C81.45,182.84,80.38,183.65,79.25,184.51Z"/>
            <path class="cls-1" d="M221.8,144.56H116.47a2.35,2.35,0,0,0,0,4.69H221.8c.38,0,.6,0,.67,0,.28,1.1-.65,5.14-1.41,8.4-1.8,7.78-24.77,113.51-28.1,128.87H168.29l-12-32a4.69,4.69,0,1,0-8.78,3.28l10.75,28.76h-10a17.56,17.56,0,0,1-.68-4.29c.19-4.5.1-8.67-2.88-14.16-1.31-2.42-2.42-4.25-3.24-5.55a1.82,1.82,0,0,0,1.14-1.74c-.06-1.74-.2-3-.3-3.85a12.49,12.49,0,0,1-.11-1.61,2.42,2.42,0,0,0-.66-1.83c-.74-.78-1.88-1.08-3.94-1.17V194.65a4.68,4.68,0,1,0-9.36,0v58.26c-2.06.92-3.23,2.86-3.26,5.68l0,3.32a1.86,1.86,0,0,0,.58,1.35,1.82,1.82,0,0,0,1.25.49H127l.32,0a27.67,27.67,0,0,0-2.55,13c.11,3.15-2.06,6.84-3.94,9.78H84.25L57.18,180.87,52.65,182l8.26,32.25-26.62-9.36c1.32-2.62,2.54-5.91-.49-7.54-1.15-.62-3-1.45-4.07-2,2.24-3.82,1.61-8-1.89-12.44-1.66-2.11-.46-7.57,1.13-10.55,1-1.93,1.66-4.64.07-5.94-2-1.6-4.75.7-5.66,1.46-.17.14-.32.29-.48.44-.29-2.74-.68-5.55-1-7.8-.22-1.6-.39-2.85-.44-3.45a2.75,2.75,0,0,0-2.66-2.71h-.06c-1.41,0-3.08,1.29-3.24,4.69a4.43,4.43,0,0,0-3.25-1.64,2.75,2.75,0,0,0-2.1.91,3.44,3.44,0,0,0-.78,2.37v.76a3.64,3.64,0,0,0-3.82-1.34,3.31,3.31,0,0,0-2.38,4.18C3.84,167,6,179.59,5.74,182.76c-.25,3.38.1,14,3.45,18.26,3.06,3.91,5.82,5.65,9.47,5.89l-.59.82a1.55,1.55,0,0,0,0,1.81l5.52,7.81a1.58,1.58,0,0,0,1.26.66h0a1.54,1.54,0,0,0,1.25-.63c.11-.15,1.49-2,3.1-4.31l33.3,11.7.63-1.79,17,66.47a2.34,2.34,0,0,0,2.27,1.76h35.66a3.82,3.82,0,0,0,.8,4.08l-7.29,32.89a33.5,33.5,0,0,1-6.42,6,50.56,50.56,0,0,0-7.92,7.24,25.87,25.87,0,0,0-2.09,2.14l-.67.65c-4.13,4.08-9.78,9.67-11.61,15.54a7.24,7.24,0,0,0,2.31,8c3,2.27,7.32,2,11.66-.76,5.86-3.71,12.31-9.87,15.39-12.95l5.3,16.36a1.56,1.56,0,0,0,1.48,1.08l.21,0a1.55,1.55,0,0,0,1.35-1.47c0-1,1.2-25.14,1.2-28.78,0-1.06,0-3.88-2.08-4.78l-.32-.09,7.19-32.48a3.32,3.32,0,0,0,1.38.51,2.42,2.42,0,0,0,1.85-.63,8.24,8.24,0,0,0,2-3v1.18c0,2.35,1.44,4.85,4.13,4.85,2.41,0,3.35-2.35,3.71-5.39a4.15,4.15,0,0,0,1,1.2,2.55,2.55,0,0,0,2.2.52,2.75,2.75,0,0,0,1.73-1.31,8.3,8.3,0,0,0,.85-4,3,3,0,0,0,.94.71,2.21,2.21,0,0,0,2.1-.13c2-1.2,1.8-4,1.08-7.2H160L172.66,325a33.59,33.59,0,0,1-2.13,8.53,49.52,49.52,0,0,0-2.7,10.41,25.72,25.72,0,0,0-.41,3c0,.3-.09.61-.14.93-.85,5.73-2,13.59.05,19.39a7.21,7.21,0,0,0,6.65,5h.07c3.71,0,7-2.84,8.8-7.61,2.46-6.49,3.92-15.28,4.53-19.6l14.06,9.9a1.56,1.56,0,0,0,2.19-2.15c-.58-.85-14.14-20.82-16.32-23.73-.59-.79-2.12-2.78-4.09-2.62L170,291.21h24.81a2.34,2.34,0,0,0,2.29-1.84c.26-1.22,26.56-122.34,28.48-130.65,1.51-6.53,2.35-10.12.52-12.42A5.36,5.36,0,0,0,221.8,144.56ZM25.37,170.36a10.39,10.39,0,0,1,1.46-1,6.49,6.49,0,0,1-.62,1.64c-1.55,2.92-3.81,10.18-.82,14,2.7,3.41,3.22,6.25,1.64,8.94a1.53,1.53,0,0,0,0,1.48c-.06.06-.12.1-.17.16l-3.12,4.36a1.53,1.53,0,0,0-.81-.26,3.81,3.81,0,0,1-2.56-1.33c-1.79-1.88-2.72-5.14-2.54-8.94C18.1,182.94,21.21,173.79,25.37,170.36ZM20,203.83c-2.94.07-5.13-.62-8.34-4.74C9.26,196,8.56,187,8.85,183s-2-16.85-2.64-19.4c-.09-.34,0-.37.14-.4s.54-.08.74.64c.52,1.9,2.16,11.24,3,15.92a1.55,1.55,0,0,0,1.7,1.29,1.57,1.57,0,0,0,1.4-1.62c0-.16-.65-15.61-.65-18.67v-.11c.22.07.47.18.52.11a35.67,35.67,0,0,0,.46,3.73c.44,2.92,1,6.92,1.19,10.27a1.42,1.42,0,0,0,.08.41.14.14,0,0,1,0,.07,1.86,1.86,0,0,0,.27.45l0,.05a1.59,1.59,0,0,0,.44.33l0,0a1.72,1.72,0,0,0,.56.15h.19a1.74,1.74,0,0,0,.22-.05,1.24,1.24,0,0,0,.33-.09.88.88,0,0,0,.23-.14,1.18,1.18,0,0,0,.25-.19.89.89,0,0,0,.16-.22,1.4,1.4,0,0,0,.16-.26,1.28,1.28,0,0,0,.07-.28,1,1,0,0,0,.06-.23c0-.45.69-11.07.83-15.29.06.46.13,1,.21,1.53.43,3.13,1,7.35,1.24,10.86a38.86,38.86,0,0,0-5.37,17.3c-.29,6.37,2,9.78,3.4,11.24a7.2,7.2,0,0,0,3.66,2.17l-1,1.39A1.48,1.48,0,0,0,20,203.83Zm4.89,9.95-3.63-5.13,7.39-10.29c1.08.49,2.68,1.23,3.68,1.77.19.1.78.42-1.42,4.53A102.64,102.64,0,0,1,24.88,213.78Zm102,48.14,0-3.31c0-3.13,1.65-4.48,4.45-4.48l.54,0c1.31,0,2.45,0,3.43,0,3.68,0,5.2.21,5.15,1.11-.06,1.15.29,2.46.4,5.63Zm-9,99.35-3.44-10.64a1.58,1.58,0,0,0-1.14-1,1.54,1.54,0,0,0-1.48.45c-.09.09-9.07,9.54-16.62,14.32-3.18,2-6.21,2.37-8.09.92a4.09,4.09,0,0,1-1.22-4.6c1-3.15,3.38-6.36,6-9.26a4.09,4.09,0,0,0,2.42,2.63,6.26,6.26,0,0,0,1.44.43,6.55,6.55,0,0,0,1.52.21c2.62,0,5.29-1.6,7.92-3.88a89.32,89.32,0,0,0,7-6.36q1.11-1.09,2.16-2.1c3-2.87,4.09-3,4.1-3.09a3.85,3.85,0,0,1,.29,2C118.67,343.42,118.22,353.66,117.87,361.27Zm29.45-64.93c-.73-.28-1.89-3.17-2.81-6.74-.32-1.68-.65-3-.8-3.63a1.2,1.2,0,0,0-2.35.51c.14.79.41,2.14.79,3.67.79,4.22,1.24,8.93.34,10.4-.08.12-.15.19-.4.15-1.3-1-2.18-6.94-2.25-11.84a1.2,1.2,0,0,0-1.2-1.19h0a1.2,1.2,0,0,0-1.2,1.2v7.57c0,7.36-1.16,7.93-1.52,7.93-1.26,0-1.73-1.5-1.73-2.44V290a1.2,1.2,0,0,0-1.16-1.2h0a1.2,1.2,0,0,0-1.2,1.12c-.39,5.84-2.54,11.64-3.54,12-.3,0-.37-.13-.41-.18-.58-.79,0-3.84.19-5.15.47-2.59,1.58-8.13,2.26-11.48a7.37,7.37,0,0,0,.58-3.15,1.21,1.21,0,0,0-1.16-1,1.24,1.24,0,0,0-1.22,1l-.52,2.57a24.78,24.78,0,0,1-3.56,6.09c-2.21,2.95-3.54,3.12-3.83,3a1.52,1.52,0,0,1-.14-1.76,25.06,25.06,0,0,1,1.76-3c2.16-3.33,5.12-7.9,5-12.16a24.56,24.56,0,0,1,3-13.17l8.73-.67c.79,1.21,2.15,3.36,3.8,6.4,2.68,5,2.76,8.63,2.58,12.9a26.42,26.42,0,0,0,1.2,6.72C147.11,291.42,148.23,295.72,147.32,296.34Zm34.19,41.15c.1-.62.19-1.23.29-1.83.06-.39.12-.78.18-1.15.69-4.11,1.46-4.87,1.43-4.94s.54.25,1.4,1.4c1.32,1.75,7.11,10.21,11.4,16.51L187.07,341a1.56,1.56,0,0,0-2.45,1.1c0,.13-1.52,13.07-4.69,21.43-1.33,3.51-3.52,5.59-5.88,5.59h0a4.07,4.07,0,0,1-3.74-2.94c-1.11-3.11-1.12-7.12-.77-11a4.09,4.09,0,0,0,3.5.65C178.9,354.56,180.29,345.49,181.51,337.49Z"/>
          </g>
          <path class="cls-1" d="M53.66,139.1a2,2,0,0,1-.82-.18c-.16-.07-15.61-7.38-13.3-28.07.94-8.4,4.35-15,10.15-19.59,8.82-7,20.6-7.35,25.47-7.14v-.66C76,54,102.66,48.24,122.12,44c3.69-.8,7.17-1.55,10.1-2.39,17-4.88,25.3-24.77,25.38-25a2,2,0,0,1,1.85-1.25h0a2,2,0,0,1,1.85,1.29c3,7.69,7.68,27.23-12,42.44-16.7,12.93-13.54,21.47-6.8,33a2,2,0,1,1-3.45,2C132,82.08,127.71,70.83,146.89,56,161.1,45,161.28,31.78,159,22.78c-3.71,6.71-12.07,18.8-25.72,22.72-3,.87-6.6,1.64-10.35,2.45-19.18,4.14-43.06,9.28-43.81,35.57v2.74a2,2,0,0,1-2.23,2c-.15,0-14.94-1.65-24.78,6.16-4.91,3.91-7.82,9.59-8.63,16.89-2,17.73,10.45,23.74,11,24a2,2,0,0,1-.84,3.82Z"/>
          <path class="cls-1" d="M224.89,144a2,2,0,0,1-1-3.73,25.07,25.07,0,0,0-12.45-46.82,24.87,24.87,0,0,0-15.05,5,2,2,0,0,1-2.4-3.2,29.07,29.07,0,0,1,46.51,23.25,29.16,29.16,0,0,1-14.62,25.23A2,2,0,0,1,224.89,144Z"/>
        </g>
        <path class="cls-1" d="M230.9,20.83a1.23,1.23,0,0,0-.66-.72l-11.32-4.85a1.18,1.18,0,0,0-1.46.48L170.13,94.58a1.27,1.27,0,0,0-.06.18c-.38,0-.77,0-1.15-.05a12.51,12.51,0,0,1-.25,1.72,52.27,52.27,0,0,1,18.29,3,11.37,11.37,0,0,1,.35-1.33q-1.14-.37-2.34-.72l45.81-75.56A1.16,1.16,0,0,0,230.9,20.83ZM182.62,96.72c-.76-.19-1.5-.39-2.3-.57A65,65,0,0,0,172.64,95l4.08-6.8,12.57-2.45Zm13.33-22-5,8.27-12.59,2.46,6.39-10.65,11.94-2.33Zm3.09-5.1L186.36,72.1l6.35-10.58L205.47,59Zm8.07-13.31-12.78,2.49,6.37-10.6,12.85-2.51ZM215.19,43,202.32,45.5l6.36-10.59,12.94-2.52Zm8.07-13.31-13,2.53,8.64-14.39,9.14,3.91Z"/>
        <path class="cls-1" d="M210.35,140.53a2,2,0,0,1-.64-.1,2,2,0,0,1-1.26-2.54,26.56,26.56,0,0,0-7.8-27.08c-15.39-14.2-39.83-14.64-56-9a140,140,0,0,0-13.2,5.93c-15.92,7.69-35.74,17.26-45.55,10.5-4.6-3.17-7.25-7.49-7.66-12.47A21.57,21.57,0,0,1,83.93,90a2,2,0,0,1,2.78,2.88,17.65,17.65,0,0,0-4.5,12.53c.31,3.8,2.31,7,5.94,9.5,7.9,5.44,28.14-4.33,41.54-10.81A147.12,147.12,0,0,1,143.32,98c17.87-6.17,43.36-5.51,60,9.89a30.54,30.54,0,0,1,8.88,31.3A2,2,0,0,1,210.35,140.53Z"/>
        <path class="cls-1" d="M80.25,119a1.5,1.5,0,0,0-2-.77c-3.59,1.58-5.28,3.8-6,5.93a6.54,6.54,0,0,0-1.2-.74c0-.05,0-.09,0-.15,0-2.87.48-6.59,2.78-7.94a1.5,1.5,0,0,0-1.53-2.59c-2.69,1.59-4.1,4.9-4.23,9.81a5.47,5.47,0,0,0-1.67.12c-.71-3.33.41-7.62,1.54-8.62a1.5,1.5,0,1,0-2-2.24c-2.23,2-3.41,7.73-2.41,11.82a1.55,1.55,0,0,0,.17.4c-3,2.38-5.21,7.32-7,12.64-.59,1.91-2.57,9.23-3.31,12.31l-.45,1.9a1.5,1.5,0,0,0,2.91.71l.46-1.91c.3-1.26.69-2.9,1.17-4.73.1,1.47.6,2.54,1.47,2.84,1.67.58,4-1.91,5.3-5.55s.94-7.08-.73-7.65c-1.09-.38-2.48.55-3.66,2.26,2.14-6.27,5-11.92,8.29-11.26a4.33,4.33,0,0,1,3.06,1.87c1.72,2.78.16,8.46-1.1,13l-.38,1.39c-1.92,7.1-3.47,11.78-3.49,11.83a1.51,1.51,0,0,0,1,1.9,1.61,1.61,0,0,0,.48.08,1.5,1.5,0,0,0,1.42-1s1.6-4.81,3.54-12l.38-1.38c1.26-4.6,2.66-9.72,1.55-13.54a1.43,1.43,0,0,0,.12-.58c0-2.77,1.54-4.79,4.7-6.17A1.51,1.51,0,0,0,80.25,119Z"/>
      </g>
      <g>
        <path class="cls-1" d="M187.46,67.7c-8.17-4.12-14.61-11.38-20.2-22.79a2,2,0,1,0-3.59,1.77c5.93,12.09,12.85,19.89,21.7,24.44Z"/>
        <path class="cls-1" d="M222.4,90.57a32.55,32.55,0,0,0-8.32-10.46c-4.61-4-9.82-6.06-15-7.87l-2,3.52c5.2,1.81,10.1,3.67,14.38,7.37a28.54,28.54,0,0,1,7.32,9.14,2,2,0,0,0,1.81,1.15,2,2,0,0,0,.85-.19A2,2,0,0,0,222.4,90.57Z"/>
      </g>
    </g>
  </g>
</svg>
