<svg xmlns="http://www.w3.org/2000/svg" viewBox="0 0 362.37 167.33">
  <defs>
    <style>
      .cls-1 {
        fill: #327152;
      }
    </style>
  </defs>
  <title>sunset-logo</title>
  <g id="Layer_2" data-name="Layer 2">
    <g id="Layer_6" data-name="Layer 6">
      <g>
        <g>
          <g>
            <path class="cls-1" d="M225.59,139a13.39,13.39,0,0,1,9.85,4.15,14.38,14.38,0,0,1,.05,20.1,14.09,14.09,0,0,1-20-.11A14.39,14.39,0,0,1,213.39,146a14.09,14.09,0,0,1,12.2-7Zm-.05,5a8.49,8.49,0,0,0-6.3,2.6,9.09,9.09,0,0,0-2.55,6.62,8.65,8.65,0,0,0,3.21,7.09,8.83,8.83,0,0,0,5.73,2,8.36,8.36,0,0,0,6.22-2.64,9.52,9.52,0,0,0,0-13A8.42,8.42,0,0,0,225.54,144Z"/>
            <path class="cls-1" d="M271.46,144.77l-2.85,2.71a.53.53,0,0,1-.74,0A10.93,10.93,0,0,0,260,144a9.05,9.05,0,0,0-9.17,9.17,9.66,9.66,0,0,0,1.18,4.79,8.36,8.36,0,0,0,3.31,3.28,9.6,9.6,0,0,0,4.77,1.2,9.81,9.81,0,0,0,4.09-.84,14,14,0,0,0,3.68-2.67.53.53,0,0,1,.75,0l2.75,2.88a.53.53,0,0,1,0,.75,18.43,18.43,0,0,1-5.26,3.67,15.32,15.32,0,0,1-6.07,1.13,14,14,0,0,1-10.3-4,13.78,13.78,0,0,1-4-10.22,14.11,14.11,0,0,1,1.82-7.18,13.57,13.57,0,0,1,5.23-5,14.77,14.77,0,0,1,7.33-1.91,15.55,15.55,0,0,1,11.42,5A.54.54,0,0,1,271.46,144.77Z"/>
            <path class="cls-1" d="M280.26,139.22h4.23a.49.49,0,0,1,.48.48v26.46a.48.48,0,0,1-.48.48h-4.23a.48.48,0,0,1-.48-.48V139.7A.49.49,0,0,1,280.26,139.22Z"/>
            <path class="cls-1" d="M326.11,139.22h4.42a.4.4,0,0,1,.4.4v21.65a.4.4,0,0,0,.4.4H342a.39.39,0,0,1,.4.39v4.18a.4.4,0,0,1-.4.4H326.11a.4.4,0,0,1-.4-.4V139.62A.4.4,0,0,1,326.11,139.22Z"/>
          </g>
          <path class="cls-1" d="M316.29,145.79a9.58,9.58,0,0,0-3.49-5,11,11,0,0,0-6.56-1.79,11.33,11.33,0,0,0-6.17,1.54,9.71,9.71,0,0,0-3.63,4.41c-.62,1.46-1,5.56-1,10.45v10.8a.45.45,0,0,0,.45.45H300a.45.45,0,0,0,.46-.45v-7.86a.45.45,0,0,1,.46-.45h10.59a.46.46,0,0,1,.46.45v7.86a.45.45,0,0,0,.45.45h4.18a.45.45,0,0,0,.45-.45v-10.6C317,151,316.73,147.18,316.29,145.79Zm-13.38-1.32h0a5.77,5.77,0,0,1,3.27-.93,5.53,5.53,0,0,1,3.26,1,5.35,5.35,0,0,1,1.94,2.64,26.08,26.08,0,0,1,.55,5.84.46.46,0,0,1-.46.46H300.89a.47.47,0,0,1-.46-.46,28,28,0,0,1,.46-5.78A5.49,5.49,0,0,1,302.91,144.47Z"/>
          <path class="cls-1" d="M197.86,151.08l-3.42-.89c-3.34-.85-3.34-2.61-3.34-3.19,0-2.11,2.19-3.38,4.31-3.38,2.49,0,4.2,1.38,4.33,3.45a.29.29,0,0,0,.29.28h4.19a.3.3,0,0,0,.29-.3c-.15-4.7-3.82-8-9-8s-9.14,3.43-9.14,8c0,3.74,2.32,6.26,6.89,7.5l3.39.86c2.77.65,4.12,2,4,4-.23,1.63-1.59,3.38-4.74,3.38a4.74,4.74,0,0,1-5-3.76.36.36,0,0,0-.35-.33h-4.22a.21.21,0,0,0-.21.22c.13,4.65,4.37,8.27,9.76,8.27,5.24,0,9-3,9.46-7.48C205.79,155.57,203.14,152.49,197.86,151.08Z"/>
          <path class="cls-1" d="M346.27,75.49c-3.1,6-4,8.79-7.46,12.85a18,18,0,0,1-14.07,6.72c-3.14,0-6.23-.83-8.31-3.33-3.82-4.59-2.1-13.64-.18-18.73,7.28-19.22,25.14-63.89,27.56-70.55.41-1.09-6.08-3.43-6.74-2-6.89,17.6-20,52.24-27.78,69.44-5.9,13.06-15.43,23.58-28.94,29.5-5.11,2.24-9.85,3.27-14.74,2.3v0c-6.23-1.7-8.78-5.83-9.69-9.9,11.33-3,21.89-8.67,28.06-18.08,3.09-4.73,3.74-9.93,1.72-13.93-2.89-5.75-10.33-7.3-15.85-5.49-11.17,3.67-20.75,18.26-21.32,31.95a80.88,80.88,0,0,1-13.37,1.25,22.52,22.52,0,0,0-1.1-3.25c-4.23-9.86-9.29-19.27-14.4-28.83-.72-1.34-2.58-2.89-3.88-2.86s-3,1.66-3.74,3c-6.05,11.39-11.78,23-17.87,34.34-3.53,6.6-8,18.53-15.8,21.11a5.24,5.24,0,0,1-6-2.49c-1.4-2.54.21-5.39,1-7.85,2-6,3.36-9.59,4.91-15.75,1.52-6,.75-11.92-4.6-16-5.08-3.87-10.81-4.19-16.7-1.72a22.62,22.62,0,0,0-6.65,3.94c.45-1.29,1.47-3.47,1.68-4.06.78-2.18,1.23-3-1.88-4.32-3.34-1.38-4.18.55-5.16,3.11-1.42,3.7-2.43,6.3-3.87,10s-7.2,17.34-8.4,20c-4.61,10.26-10.15,19.63-18,16.85-7.14-2.53-3-14.63-2-17.9,2.17-6.8,6.06-16.81,9.4-25.29.49-1.25-4.62-3-6-2.07-.7.44-8.74,23.8-15.63,35.74-2.19,3.81-4.09,7.21-7.44,10.07-3.1,2.64-8.49,5.19-12.79,4-6.87-2-5.5-12.88-4-17.8,2.24-7.3,7.81-22.66,10.56-29.82.79-2-5.47-5.22-6.43-2.85C77.4,74,74.87,81.45,72.27,88.85c-3.9,11.09-9.55,32.28,8,35.5,9.15,1.67,18.87-5.65,24-12.69a11.75,11.75,0,0,0,7.51,7.29,13.31,13.31,0,0,0,14.86-4c-3,6.31-1.85,6.16.33,7.26,1.47.74,2.91,1.16,4-1.38,4.42-10.18,8.72-20.42,13.44-30.46,2.16-4.57,2.66-6.57,5.89-10.43a20.43,20.43,0,0,1,10.11-6.37c7.44-2.08,12.38,1.39,11.27,9A35.47,35.47,0,0,1,170,88.82c-1.87,5.57-3.21,8.58-4.7,14.25-2.19,8.34,4.07,15.48,12.63,14.67,10.88-1,16-13,20.7-21.23,4.77-8.42,8.74-17.29,13.12-25.94,1.1-2.19,2.43-4.26,4.15-7.25,3.88,7.45,7.56,13.71,10.42,20.33a27.7,27.7,0,0,1,1.28,3.89c-15.91.88-20.45,7.58-21.68,11.75a11.87,11.87,0,0,0,3.73,12.37c.18.15.37.28.55.42a2.19,2.19,0,0,0,.37.25,11.28,11.28,0,0,0,6.63,1.82c8.53-.18,14.62-5,17.4-13.25a24.05,24.05,0,0,0,1.26-6.48,88.19,88.19,0,0,0,13.24-1.21,19.3,19.3,0,0,0,9.77,13.18,0,0,0,0,1,0,0c5,2.8,8.78,2.91,14.53,2.18,10.65-1.36,19.46-6.68,27-14.13,2.11-2.08,4.11-4.29,6.39-6.68.43,1.16.68,1.88,1,2.58,3.45,8.72,11.23,11.92,18.85,11.42,7.46-.48,12.4-3.2,16.89-8.62a53,53,0,0,0,9.11-15.74C353.31,75.59,347.68,72.76,346.27,75.49ZM217.72,107.3a5.05,5.05,0,0,1-4.6-2.11,5,5,0,0,1-.52-3.91c.46-1.55,3-6.21,16.08-6.79,0,.47.08,1,.09,1.41A11.08,11.08,0,0,1,217.72,107.3ZM272,60.87a8,8,0,0,1,2.49-.39c2.08,0,4.14.77,5,2.39,1,2.05,0,4.94-1.33,7-4.82,7.37-13.29,12-22.48,14.7C256.9,74.32,264.17,63.46,272,60.87Z"/>
          <path class="cls-1" d="M294.64,41.38c-1.66,0-1.24-1.72-.87-3.35.41-1.84.78-2.81,2.5-2.89L361,32c1.71-.1,1.37,1.13,1.29,2.85-.1,2.08-.14,3.2-1.86,3.28l-65.64,3.25Z"/>
        </g>
        <path class="cls-1" d="M45.24,77c-1.9-2.47-3.86-5-5.65-7.64l-1.27-1.85-.12-.18c-2.52-3.63-5.12-7.38-6.72-11.52a18.56,18.56,0,0,1,.17-14.55,16.84,16.84,0,0,1,9.86-8.78c8.6-3,17.57.94,20.44,8.95a9.52,9.52,0,0,1-.77,8.34l-.27.46c-.24.42-.64,1.06,2.54,2.51s3.86,1.19,4.19.73A2.93,2.93,0,0,0,67.9,53a16,16,0,0,0,1.43-12.4c-2.7-9.88-10.61-16-21.14-16.34h-.48C36.62,24.08,27,30.67,24.27,40.33s-1.33,18.48,4.1,26.23c1.87,2.67,4,5.25,6.06,7.74,2.36,2.84,4.77,5.76,6.86,8.86,2.87,4.27,6.41,9.93,8.37,16A20.16,20.16,0,0,1,48,115.05a21.19,21.19,0,0,1-12.86,10.42c-12.79,3.5-23.43-2.22-27.09-14.59-1.92-6.5-.74-12.9,3.74-20.15,2.13-3.46.52-3.91-1.12-5.17-1.94-1.49-3.85-.66-5.09,1.19A33,33,0,0,0,0,105.43c.11,10.18,4.87,19,13.07,24.23s18.5,5.85,28,1.54a28.43,28.43,0,0,0,15.1-16.42,30.24,30.24,0,0,0-1.43-23.63C52.27,86.13,48.69,81.49,45.24,77Z"/>
      </g>
    </g>
  </g>
</svg>
