<svg xmlns="http://www.w3.org/2000/svg" viewBox="0 0 109.17 109.79">
  <defs>
    <style>
      .cls-1 {
        fill: #337253;
      }

      .cls-2 {
        fill: #fff8d4;
      }
    </style>
  </defs>
  <title>sunset-arm</title>
  <g id="Layer_2" data-name="Layer 2">
    <g id="Layer_1-2" data-name="Layer 1">
      <path class="cls-1" d="M108.77,23.88a3.18,3.18,0,0,0-2.08-1.67c-1.89-.48-4.57.64-9,3.71-.89.64-2.68,1.89-4.57,3.14,2.65-3.58,6-8.25,8.44-12.35,2.24-3.74,2.69-6.56,1.31-8.38s-4-1.95-6.11-1.41A9,9,0,0,0,93.8,9a8.48,8.48,0,0,0,.83-5.34,4.88,4.88,0,0,0-3-3.39c-3.46-1.53-7.74,3-11.39,8.45.19-.58.38-1.09.58-1.57,1.21-3.3-.2-5.66-2.11-6.56A4.54,4.54,0,0,0,72.82,2.7c-1.54,2.65-7.55,13.79-11,20.12-.07-2.94-.48-5.6-2-7.07a3.94,3.94,0,0,0-3.23-1.09c-6,.48-5.6,8.48-5.34,14.33.06,1.48.13,2.82.06,3.84l0,.58a30.54,30.54,0,0,0,.67,10c1.19,4.19,15.71,14.2,16.09,14.33a2.14,2.14,0,0,0,.19-1.09,2.52,2.52,0,0,0-.73-1.47,8.16,8.16,0,0,0,2.24,1.22,9.54,9.54,0,0,0,3.07.51c5.08,0,9.66-3.87,11.64-6.85l.64-1c1.38-2.17,1.86-2.91,11.29-9.6C106.47,32.35,110.53,27.23,108.77,23.88ZM95,37.5c-9.86,7-10.37,7.81-11.93,10.27l-.64,1c-1.67,2.53-6.79,7.13-12,5.41-2-.64-3.64-2.56-4.64-5.25-1.08-3-1.12-6.37,0-8.19A1.21,1.21,0,0,0,65.4,39a1.24,1.24,0,0,0-1.64.41c-1.47,2.44-1.53,6.56-.16,10.27a12.23,12.23,0,0,0,3.17,4.83l-10.52-8c-3-3.87-2.82-8.51-2.56-13l0-.58c.06-1.12,0-2.56-.06-4.06-.29-6.11-.26-11.58,3.13-11.87a1.65,1.65,0,0,1,1.38.45c1.6,1.53,1.34,6.78,1.15,10.27A1.18,1.18,0,0,0,60.21,29a1.22,1.22,0,0,0,1.38-.57c.1-.2,11.19-20.83,13.31-24.51A2.14,2.14,0,0,1,77.71,2.8c.9.41,1.6,1.56.9,3.55-1.89,5.05-5.89,16-5.89,16a1.21,1.21,0,0,0,.67,1.54,1.23,1.23,0,0,0,1.54-.61C79.25,14,87.18,1,90.7,2.51a2.45,2.45,0,0,1,1.6,1.73c.64,2.59-2.24,6.81-3.46,8.34L81.65,23.81A1.17,1.17,0,0,0,82,25.44a1.23,1.23,0,0,0,1.66-.28C89,17.86,95.78,9.71,97.35,9.26c1.28-.35,3-.29,3.58.51.32.45.87,1.85-1.43,5.69A203.35,203.35,0,0,1,86.76,33.41,1.25,1.25,0,0,0,86.83,35a1.23,1.23,0,0,0,1.57.19s8.31-5.63,10.65-7.26c4.48-3.11,6.33-3.55,7.07-3.36a.72.72,0,0,1,.51.45C106.82,25.32,107.91,28.39,95,37.5Z"/>
      <path class="cls-2" d="M95,37.5c-9.86,7-10.37,7.81-11.93,10.27l-.64,1c-1.67,2.53-6.79,7.13-12,5.41-2-.64-3.64-2.56-4.64-5.25-1.08-3-1.12-6.37,0-8.19A1.21,1.21,0,0,0,65.4,39a1.24,1.24,0,0,0-1.64.41c-1.47,2.44-1.53,6.56-.16,10.27a12.23,12.23,0,0,0,3.17,4.83l-10.52-8c-3-3.87-2.82-8.51-2.56-13l0-.58c.06-1.12,0-2.56-.06-4.06-.29-6.11-.26-11.58,3.13-11.87a1.65,1.65,0,0,1,1.38.45c1.6,1.53,1.34,6.78,1.15,10.27A1.18,1.18,0,0,0,60.21,29a1.22,1.22,0,0,0,1.38-.57c.1-.2,11.19-20.83,13.31-24.51A2.14,2.14,0,0,1,77.71,2.8c.9.41,1.6,1.56.9,3.55-1.89,5.05-5.89,16-5.89,16a1.21,1.21,0,0,0,.67,1.54,1.23,1.23,0,0,0,1.54-.61C79.25,14,87.18,1,90.7,2.51a2.45,2.45,0,0,1,1.6,1.73c.64,2.59-2.24,6.81-3.46,8.34L81.65,23.81A1.17,1.17,0,0,0,82,25.44a1.23,1.23,0,0,0,1.66-.28C89,17.86,95.78,9.71,97.35,9.26c1.28-.35,3-.29,3.58.51.32.45.87,1.85-1.43,5.69A203.35,203.35,0,0,1,86.76,33.41,1.25,1.25,0,0,0,86.83,35a1.23,1.23,0,0,0,1.57.19s8.31-5.63,10.65-7.26c4.48-3.11,6.33-3.55,7.07-3.36a.72.72,0,0,1,.51.45C106.82,25.32,107.91,28.39,95,37.5Z"/>
      <g>
        <path class="cls-1" d="M53.3,60.94c-3-2.58-5-4.33-6.22-5.65L0,103.05l6.83,6.74L54.21,61.73A10.93,10.93,0,0,1,53.3,60.94Z"/>
        <path class="cls-1" d="M51.21,45.67l14.66,11.2-2.93,3.22a5.88,5.88,0,0,1-4.29,2.31,6.54,6.54,0,0,1-4.5-2.31c-6.14-5.3-8.53-7.49-7.47-8.55s1.87-2.67,4.53-5.87Zm0-2.4a2.39,2.39,0,0,0-1.84.87c-1.47,1.75-2.4,3.07-3.09,4A13.67,13.67,0,0,1,45,49.84a3.17,3.17,0,0,0-1,2.39c.08,2.25,2.1,4.11,8.47,9.62a8.79,8.79,0,0,0,6.14,2.95,8.22,8.22,0,0,0,6.07-3.09l2.93-3.23A2.41,2.41,0,0,0,67.33,55L52.67,43.76a2.4,2.4,0,0,0-1.46-.49Z"/>
      </g>
    </g>
  </g>
</svg>
