<svg xmlns="http://www.w3.org/2000/svg" viewBox="0 0 197.51 173.31">
  <defs>
    <style>
      .cls-1 {
        fill: #337253;
      }

      .cls-2 {
        fill: #fff8d4;
      }
    </style>
  </defs>
  <title>sunset-dog</title>
  <g id="Layer_2" data-name="Layer 2">
    <g id="Layer_1-2" data-name="Layer 1">
      <g>
        <path class="cls-1" d="M150.07,103q1.37-4.65,2.61-9.33c.92-3.35,2.22-6.9,2.66-10.35,0-.07,0-.11,0-.18a6.58,6.58,0,0,0-4.15-6.49c-4.39-1.66-8,4.58-9.39,7.79s-.91,7.87-.56,10.61c0,.17,0,.35.06.53a5.79,5.79,0,0,0-3,.31c-2.38.9-4.49,3.37-6.27,7.33a2.55,2.55,0,0,0,0,2.08c.85,2.18,4.47,3.86,5.19,4.18l8.29,3.73a1.33,1.33,0,0,0,.5.11,1.1,1.1,0,0,0,.53-.11,1.27,1.27,0,0,0,.7-.77C148.24,109.32,149.16,106.15,150.07,103Zm-11.33,4.4a5.72,5.72,0,0,1,2-3.44,1.7,1.7,0,0,1,1-.4.83.83,0,0,0,1-.62.81.81,0,0,0-.57-1,2.81,2.81,0,0,0-2.17.57,7,7,0,0,0-2.66,4.12c-1.24-.66-2.59-1.59-2.88-2.29,1.46-3.4,3.15-5.49,4.87-6.12a3.36,3.36,0,0,1,2.7.12,1.45,1.45,0,0,0,1.41-.12c.78-.58.68-1.44.42-3.53-.3-2.46-.84-6.6.35-9.26a21.86,21.86,0,0,1,4.37-6,1.94,1.94,0,0,1,1.14-.5c1.14-.07,2.11,1.05,2.67,1.89a3.08,3.08,0,0,1,.55,1.92A32.25,32.25,0,0,1,151.58,88q-.69,2.68-1.42,5.4-1.32,4.84-2.73,9.67c-.14.47-2.29,7.2-2.18,7.25Z"/>
        <path class="cls-2" d="M145.25,110.33l-6.51-2.93a5.72,5.72,0,0,1,2-3.44,1.7,1.7,0,0,1,1-.4.83.83,0,0,0,1-.62.81.81,0,0,0-.57-1,2.81,2.81,0,0,0-2.17.57,7,7,0,0,0-2.66,4.12c-1.24-.66-2.59-1.59-2.88-2.29,1.46-3.4,3.15-5.49,4.87-6.12a3.36,3.36,0,0,1,2.7.12,1.45,1.45,0,0,0,1.41-.12c.78-.58.68-1.44.42-3.53-.3-2.46-.84-6.6.35-9.26a21.86,21.86,0,0,1,4.37-6,1.94,1.94,0,0,1,1.14-.5c1.14-.07,2.11,1.05,2.67,1.89a3.08,3.08,0,0,1,.55,1.92A32.25,32.25,0,0,1,151.58,88q-.69,2.68-1.42,5.4-1.32,4.84-2.73,9.67C147.29,103.55,145.14,110.28,145.25,110.33Z"/>
      </g>
      <g>
        <path class="cls-1" d="M90.93,103.09c-.39-3.21-.8-6.42-1.26-9.61C89.19,90,89,86.27,88,82.92L88,82.75a6.58,6.58,0,0,0-6.37-4.34c-4.68.19-5.51,7.33-5.57,10.85s2.26,7.6,3.65,10l.26.46a5.65,5.65,0,0,0-2.62,1.46c-1.84,1.76-2.81,4.86-2.89,9.21a2.6,2.6,0,0,0,.79,1.92c1.64,1.67,5.63,1.79,6.41,1.81l9.09.17a1.22,1.22,0,0,0,.51-.1,1,1,0,0,0,.44-.3,1.31,1.31,0,0,0,.34-1C91.72,109.61,91.32,106.35,90.93,103.09Zm-8.69,8.49a5.62,5.62,0,0,1,.46-3.93,1.65,1.65,0,0,1,.73-.75.82.82,0,0,0,.65-1,.81.81,0,0,0-.91-.66,2.76,2.76,0,0,0-1.76,1.38,6.87,6.87,0,0,0-.83,4.83c-1.4-.12-3-.44-3.55-1,0-3.7.74-6.28,2.07-7.54a3.42,3.42,0,0,1,2.54-1,1.44,1.44,0,0,0,1.24-.66c.49-.84.06-1.6-1-3.41-1.24-2.15-3.36-5.74-3.31-8.66a22.12,22.12,0,0,1,1.66-7.24,2,2,0,0,1,.85-.91c1-.5,2.35.14,3.2.69a3.09,3.09,0,0,1,1.26,1.55,32.65,32.65,0,0,1,.89,5.32c.27,1.82.55,3.67.81,5.52.46,3.32.89,6.63,1.29,10,.06.49.72,7.52.84,7.52Z"/>
        <path class="cls-2" d="M89.37,111.72l-7.13-.14a5.62,5.62,0,0,1,.46-3.93,1.65,1.65,0,0,1,.73-.75.82.82,0,0,0,.65-1,.81.81,0,0,0-.91-.66,2.76,2.76,0,0,0-1.76,1.38,6.87,6.87,0,0,0-.83,4.83c-1.4-.12-3-.44-3.55-1,0-3.7.74-6.28,2.07-7.54a3.42,3.42,0,0,1,2.54-1,1.44,1.44,0,0,0,1.24-.66c.49-.84.06-1.6-1-3.41-1.24-2.15-3.36-5.74-3.31-8.66a22.12,22.12,0,0,1,1.66-7.24,2,2,0,0,1,.85-.91c1-.5,2.35.14,3.2.69a3.09,3.09,0,0,1,1.26,1.55,32.65,32.65,0,0,1,.89,5.32c.27,1.82.55,3.67.81,5.52.46,3.32.89,6.63,1.29,10C88.59,104.69,89.25,111.72,89.37,111.72Z"/>
      </g>
      <g>
        <path class="cls-1" d="M183.61,61.47a15.92,15.92,0,0,0-9.13-9.88c-8.21-3.49-19.13.33-28.75,3.7-1.31.46-2.58.9-3.8,1.3-12.34,4.15-26.14,4.56-41,1.24a78.12,78.12,0,0,1-17.21-6,88.93,88.93,0,0,1-9-5c-.24-.17-1.29-1-2.3-1.75-6.51-5-7-5.26-8.06-4.67l-7.52,4c-2.38,1.08-5.48,6.2-6.42,12.73a23.81,23.81,0,0,0,9,22.53C73.48,91.15,92.33,96.75,117,96.77h.14a181.42,181.42,0,0,0,32.76-3l1-.19c10.63-1.95,23.88-4.39,29.87-14.24C184.35,73.48,185.38,67,183.61,61.47Zm-5.45,16.26c-5.28,8.67-17.76,11-27.8,12.82l-1,.18a176.25,176.25,0,0,1-32.2,3H117c-24,0-42.16-5.39-55.7-16.42C53.43,70.84,52.7,63,53.48,57.57c.84-5.91,3.64-10,4.65-10.37l.12-.07,6.9-3.7c1.21.79,4,2.92,5.42,4s2.18,1.68,2.51,1.89a89.5,89.5,0,0,0,9.31,5.24,82.29,82.29,0,0,0,17.9,6.23c15.39,3.45,29.73,3,42.63-1.32l3.82-1.32c8.66-3,19.42-6.8,26.53-3.78a12.79,12.79,0,0,1,7.41,8C182.19,67.06,181.26,72.63,178.16,77.73Z"/>
        <path class="cls-2" d="M178.16,77.73c-5.28,8.67-17.76,11-27.8,12.82l-1,.18a176.25,176.25,0,0,1-32.2,3H117c-24,0-42.16-5.39-55.7-16.42C53.43,70.84,52.7,63,53.48,57.57c.84-5.91,3.64-10,4.65-10.37l.12-.07,6.9-3.7c1.21.79,4,2.92,5.42,4s2.18,1.68,2.51,1.89a89.5,89.5,0,0,0,9.31,5.24,82.29,82.29,0,0,0,17.9,6.23c15.39,3.45,29.73,3,42.63-1.32l3.82-1.32c8.66-3,19.42-6.8,26.53-3.78a12.79,12.79,0,0,1,7.41,8C182.19,67.06,181.26,72.63,178.16,77.73Z"/>
      </g>
      <g>
        <path class="cls-1" d="M148,49.4c-2.26-1.38-5.32-.51-7.45,2.12-3.7,4.56-10,5.27-16,1.81-3.83-2.2-5.55-1.92-8.78,1.44a6.77,6.77,0,0,1-5,2.21,6.92,6.92,0,0,1-.9-.06c-4.14-.51-7.69-4.46-8.67-6.19-.34-.59-2.78-2.42-7.82.11a7.42,7.42,0,0,1-7.78-.7,2.45,2.45,0,1,1,2.71-4.09,2.58,2.58,0,0,0,2.87.39c7.55-3.77,12.68-.95,14.29,1.86.55,1,3,3.5,5,3.75a1.87,1.87,0,0,0,1.72-.68c4.79-5,8.93-5.66,14.76-2.3,3.95,2.27,7.6,2,9.76-.65,3.73-4.59,9.42-5.91,13.83-3.2,1.52.93,4.31,2.29,6,1A2.46,2.46,0,1,1,159.57,50C156.6,52.38,152.47,52.17,148,49.4Z"/>
        <path class="cls-1" d="M40,22.92a8.52,8.52,0,0,1,3.2.62c-.21-3.31-.5-13.11,3-17a4.84,4.84,0,0,1,3.57-1.76,5,5,0,0,1,3.92,1.49c3,3,2.56,10.05,2.26,15.17-.07,1.15-.13,2.2-.14,3.05a1.23,1.23,0,0,1-1.23,1.21h0a1.24,1.24,0,0,1-1.22-1.25c0-.88.08-2,.15-3.15.25-4.4.64-11-1.57-13.31a2.52,2.52,0,0,0-2.07-.75A2.42,2.42,0,0,0,48,8.11a10.1,10.1,0,0,0-1.85,4.58c.49-1.08,1.2-1.78,2-1.78,1.47,0,2.67,2.34,2.67,5.24s-1.2,5.23-2.67,5.23c-1.22,0-2.23-1.59-2.56-3.75a52.44,52.44,0,0,0,.1,6.68,1.29,1.29,0,0,1-.14.65,8.65,8.65,0,0,1,3.11,6.65.89.89,0,1,1-1.77,0A6.93,6.93,0,1,0,40,38.54a6.81,6.81,0,0,0,2.56-.49.88.88,0,0,1,.65,1.64,8.61,8.61,0,0,1-3.21.62,8.7,8.7,0,1,1,0-17.39Z"/>
        <path class="cls-1" d="M42.37,28.54a.49.49,0,1,1,.49.49A.48.48,0,0,1,42.37,28.54Z"/>
        <path class="cls-1" d="M40,29a.49.49,0,0,1,0-1,.49.49,0,0,1,0,1Z"/>
        <circle class="cls-1" cx="37.31" cy="27.33" r="0.49"/>
        <path class="cls-1" d="M40,26.84a.49.49,0,0,1,0-1,.49.49,0,1,1,0,1Z"/>
      </g>
      <path class="cls-1" d="M29.84,37.36l.14-.68a.91.91,0,0,0-.71-1.08L8.07,31.14c-4.63-1-4.63-1-5.29-5h0A6.72,6.72,0,0,0,6.17,23.1a4.53,4.53,0,0,0,.76-2.19,5.51,5.51,0,0,1,.57,0l1.58,0c4.5.12,9.14.24,13.72,0l1.52-.07c4.8-.2,11.37-.47,14.36-5.12a24.75,24.75,0,0,0,1.78-3.52c.38-.84.75-1.69,1.2-2.5a13.62,13.62,0,0,1,9.8-6.94A21.68,21.68,0,0,1,67.81,7.06c2.4,1.18,2.75,2,3.74.83a6.46,6.46,0,0,0-2.12-2.81A24.42,24.42,0,0,0,51,.31,16.1,16.1,0,0,0,39.45,8.52c-.48.87-.89,1.78-1.3,2.7a23.45,23.45,0,0,1-1.59,3.17c-2.29,3.55-7.86,3.78-12.34,4l-1.55.07c-4.48.24-9.08.12-13.52,0l-1.58,0a8.82,8.82,0,0,0-2.07.22,6.21,6.21,0,0,0-2.88-.67c-3.06,0-2.88,2.92-2.23,5.34a7.86,7.86,0,0,0-.1,3.33c.79,4.78,1.45,5.67,5.2,6.57l23.26,4.91A.93.93,0,0,0,29.84,37.36Z"/>
      <path class="cls-1" d="M63.56,40.29l-11,5.61A15.38,15.38,0,0,0,48,44.38c-2.83-.59-7.88-1.46-13.74-2.47l-9.22-1.6-2.41-.43h0c-2.45-.44-4.75-.87-6.78-1.27L12.43,38s-4,1.62-.6,2.3c7,1.38,16.08,3.11,22,4.14,5.59,1,10.87,1.87,13.66,2.45s4.22,1.22,4.74,2a2.36,2.36,0,0,1,.26,1.39c.65,1,2.54,0,2.54-.13L68.91,43C71.72,39.56,67.47,38.09,63.56,40.29Z"/>
      <path class="cls-1" d="M181.57,41.56C180.34,39.51,173,30,143.92,35.41a123.38,123.38,0,0,1-56.49-2.57,12.61,12.61,0,0,1-6.18-2.74c.93,3.45,2.36,6.6,4.61,8.64h0a.79.79,0,0,1,0-.13c3.38,2.62,9.37,5.17,25.81,5.63,12.29.33,23.23-1.23,32-2.49a102.84,102.84,0,0,1,12.48-1.34c7.68,0,15.47,7.52,15.54,7.59l.59.57.81-.12a10.52,10.52,0,0,0,2.44-.74c.38-.12.74-.27,1.12-.41,1.39-.91,3.05-1.54,4.23-2.69C181.87,43.73,182.79,43.62,181.57,41.56Z"/>
      <path class="cls-1" d="M15.34,41c1.18-.14-3.43-.67-3.62-.71a12.5,12.5,0,0,1-2-.59,5.62,5.62,0,0,1-3-2.61,6.38,6.38,0,0,1-.33-.82,4.36,4.36,0,0,1,1.16-4.36l1.79,1.79a1.89,1.89,0,0,0-.53,1.81c.47,1.64,2.75,2.5,6,3Z"/>
      <path class="cls-1" d="M81,50.6c3.42-2.55,4.63-7.43,4.94-11.79a187.63,187.63,0,0,0-1.54-19C83,12.19,80.88,7.48,77.79,5.38a7.3,7.3,0,0,0-7.43-.51C68,6.11,67,8.51,66.34,10.93c-1.78,6.39-1.68,13.36-1.68,19.94,0,.91,0,1.69,0,2.27-.1,5.39.73,12.69,4.69,16.73a8.69,8.69,0,0,0,7.45,2.4A8.88,8.88,0,0,0,81,50.6Z"/>
      <path class="cls-1" d="M16.14,36a11.18,11.18,0,0,1,1.77-.18s1.89-.52,1.92-.57c.31-.75.31-.74.6-1.48l-9.51-2A14.44,14.44,0,0,0,8,32.13a10.47,10.47,0,0,0-2.54,1C2.61,34.79,1,37.67.94,41.51c-.06,3.17.58,5.46,1.91,6.81a3.63,3.63,0,0,0,2.6,1.16c1.84,0,3.81-1.58,3.81-6A7.2,7.2,0,0,1,10.17,40a5.15,5.15,0,0,1,1.3-1.83A9.14,9.14,0,0,1,16.14,36Z"/>
      <g>
        <path class="cls-1" d="M196,160.24l1.41,4.17c.2.6,0,1-.75,1h-1.75c-.66,0-.91-.27-1-1l-.53-4.34c0-.44.08-.55.53-.55H195A.91.91,0,0,1,196,160.24Zm-4,0,1.41,4.17c.21.6,0,1-.74,1H191c-.67,0-.92-.27-1-1l-.54-4.34c0-.44.08-.55.54-.55h1.06A.91.91,0,0,1,192.06,160.24Z"/>
        <path class="cls-1" d="M167.77,159.52h2.11c.69,0,1,.11,1.09.7l.8,5c.15,1.05.26,2.84.28,3.37h.15a24.88,24.88,0,0,1,.37-3.37l1.16-5c.13-.59.47-.7,1.06-.7h2.05c.61,0,.94.09,1.07.7l1.18,5a21.08,21.08,0,0,1,.36,3.37h.13a28.42,28.42,0,0,1,.27-3.37l.84-5c.11-.59.4-.7,1.06-.7h2.34c.59,0,.65.24.52.78l-3,12.09c-.11.52-.44.63-1,.63h-2.19c-.53,0-.83-.11-1-.66l-1-4.4a18.86,18.86,0,0,1-.42-3.42h-.15a18.3,18.3,0,0,1-.37,3.42l-1,4.43c-.12.5-.44.63-1,.63h-2.23c-.53,0-.83-.11-1-.66l-3-12.06C167.12,159.76,167.18,159.52,167.77,159.52Z"/>
        <path class="cls-1" d="M161.25,169.41H162c1.15,0,1.51.38,1.51,1.5v.78c0,1.12-.36,1.48-1.51,1.48h-.72c-1.12,0-1.48-.36-1.48-1.48v-.78C159.77,169.79,160.13,169.41,161.25,169.41Z"/>
        <path class="cls-1" d="M154.89,164.56V168c0,3.29-2.11,5.33-5.86,5.33-2.93,0-4.76-1.2-5.55-3.33-.2-.55-.06-.84.51-1l2-.72c.58-.21.8-.08,1,.51a1.86,1.86,0,0,0,2,1.24c1.5,0,2.09-.65,2.09-2v-3.46c0-1.33-.59-2-2.09-2a1.84,1.84,0,0,0-2,1.24c-.21.59-.44.68-1,.51l-2-.72c-.57-.19-.71-.48-.51-1,.79-2.13,2.62-3.33,5.55-3.33C152.78,159.23,154.89,161.27,154.89,164.56Z"/>
        <path class="cls-1" d="M136.34,169.41h.72c1.14,0,1.5.38,1.5,1.5v.78c0,1.12-.36,1.48-1.5,1.48h-.72c-1.13,0-1.49-.36-1.49-1.48v-.78C134.85,169.79,135.21,169.41,136.34,169.41Z"/>
        <path class="cls-1" d="M122.65,163.49c0,3.69-3.12,4.09-5.34,4.4-1.26.17-2.23.38-2.23,1.12s.76,1.08,2,1.08a2.21,2.21,0,0,0,2.14-1c.29-.56.56-.61,1.13-.42l1.79.64c.55.21.72.48.51,1.05-.72,2-2.7,2.95-5.54,2.95-3.36,0-5.89-1.54-5.89-4.34,0-3.59,2.85-4.13,5.06-4.43,1.36-.17,2.49-.34,2.49-1.16,0-.67-.52-1-1.81-1a1.94,1.94,0,0,0-1.92,1c-.3.55-.51.63-1,.4l-1.9-.82c-.57-.23-.72-.51-.46-1.07.9-1.82,2.49-2.66,5.31-2.66C120.63,159.23,122.65,161,122.65,163.49Z"/>
        <path class="cls-1" d="M93.19,159.5h1.9c.63,0,.8.09,1.07.61l3.14,6.14,3.13-6.16c.27-.48.46-.59,1.13-.59h1.79c.6,0,.81.19.81.8v11.94c0,.59-.21.78-.81.78H103.4c-.6,0-.81-.19-.81-.78v-2.7a17.66,17.66,0,0,1,.78-5h-.19a21.82,21.82,0,0,1-1.18,3.14l-1.13,2.15a.82.82,0,0,1-.91.55H98.69a.88.88,0,0,1-.92-.55l-1.06-2.15a27.77,27.77,0,0,1-1.28-3.14h-.21a16.17,16.17,0,0,1,.84,5v2.72c0,.59-.19.78-.8.78H93.19c-.61,0-.82-.19-.82-.78V160.3C92.37,159.69,92.58,159.5,93.19,159.5Z"/>
        <path class="cls-1" d="M86.71,160.28v12c0,.57-.19.76-.76.76H83.7c-.57,0-.76-.19-.76-.76v-12c0-.57.19-.76.76-.76H86C86.52,159.52,86.71,159.71,86.71,160.28Z"/>
        <path class="cls-1" d="M67.73,159.52h9.42c.61,0,.8.21.8.8V162c0,.61-.19.82-.8.82H74.31v9.37c0,.59-.19.8-.8.8H71.36c-.61,0-.81-.21-.81-.8v-9.37H67.73c-.61,0-.82-.21-.82-.82v-1.71C66.91,159.73,67.12,159.52,67.73,159.52Z"/>
        <path class="cls-1" d="M51.48,159.5h2.17c.59,0,.8.21.8.82v4.2h3.69v-4.2c0-.61.19-.82.8-.82h2.15c.61,0,.81.21.81.82v11.9c0,.59-.2.8-.81.8H58.94c-.61,0-.8-.21-.8-.8v-4.37H54.45v4.37c0,.59-.21.8-.8.8H51.48c-.59,0-.8-.21-.8-.8v-11.9C50.68,159.71,50.89,159.5,51.48,159.5Z"/>
        <path class="cls-1" d="M42.69,164.65l-1.41-4.18c-.21-.59,0-.95.74-.95h1.75c.67,0,.92.26,1,.95l.54,4.35c0,.44-.08.56-.54.56H43.7A.91.91,0,0,1,42.69,164.65Zm-4,0-1.41-4.18c-.2-.59,0-.95.75-.95h1.75c.66,0,.91.26,1,.95l.53,4.35c0,.44-.08.56-.53.56H39.74A.91.91,0,0,1,38.73,164.65Z"/>
      </g>
    </g>
  </g>
</svg>
