<svg xmlns="http://www.w3.org/2000/svg" viewBox="0 0 144.68 81.12">
  <defs>
    <style>
      .cls-1 {
        fill: #fff8d4;
      }

      .cls-2 {
        fill: #337253;
      }
    </style>
  </defs>
  <title>sunset-hat</title>
  <g id="Layer_2" data-name="Layer 2">
    <g id="Layer_1-2" data-name="Layer 1">
      <g>
        <path class="cls-1" d="M99.36,22.45c-7.67.51-35.67,5.38-62.47,46.82l-.19.11L35,68.08a70.22,70.22,0,0,1-12.8-20.56c-1.57-4.27-5.9-17.4-2.72-25.19C33,11.55,39.62,8.34,48.69,5.55,54.26,3.83,59.8,2.37,65.42,2.37a29.11,29.11,0,0,1,16.45,5C92.56,14.42,96.55,17.51,99.36,22.45Z"/>
        <path class="cls-2" d="M62.85,34.25c-2.8,0-5.93-1.67-7.31-5.68A2.4,2.4,0,1,1,60.07,27c.7,2,2,2.58,3.08,2.42a1.76,1.76,0,0,0,1.59-1.74c.13-2.83-.24-3.1-5.53-4.16l-1.9-.39c-6.11-1.3-8.06-4.11-8.62-6.25a5.7,5.7,0,0,1,1.66-5.69c1.23-1.09,4.69-3,10.16,3A2.4,2.4,0,0,1,57,17.42c-2-2.23-3.34-2.6-3.52-2.6a1.23,1.23,0,0,0-.12.85c.23.88,1.66,2.07,5,2.78l1.85.38c5,1,9.69,1.94,9.37,9.07a6.56,6.56,0,0,1-5.7,6.28A6.37,6.37,0,0,1,62.85,34.25Z"/>
        <path class="cls-2" d="M144.66,27.94c-.31-3.21-4.28-3.35-6-3.41-5.69-.21-16.12-.34-26.56-.34-7.62,0-9.42-.94-9.74-1.16-3.14-6.48-6.93-9.59-19.19-17.63C70.76-2.75,59-.13,48,3.25,38,6.32,30.92,9.85,15.2,22.66c-1.1.89-2.23,1.83-3.41,2.81C-9,42.76,3.87,78.8,4.43,80.33a1.22,1.22,0,0,0,.86.76,1.24,1.24,0,0,0,.27,0,1.22,1.22,0,0,0,.84-.35c6.51-6.38,22.61-7.58,24.82-7.33,2.55.25,5.79-1.46,6.85-2.07,18.59.29,23.55,2,28.34,3.66a46.6,46.6,0,0,0,5.9,1.73c11.72,2.52,16.47-5,21.11-12.24.43-.67.86-1.34,1.3-2l.54-.64a61.91,61.91,0,0,1,8.23-8.2c7.51-5.93,15.71-6.5,24.59-8.89,6.3-1.69,13-5.62,15.48-12a9.17,9.17,0,0,0,.24-2.61A2.78,2.78,0,0,0,144.66,27.94ZM36.89,69.27l-.19.11L35,68.08a70.22,70.22,0,0,1-12.8-20.56c-1.57-4.27-5.9-17.4-2.72-25.19C33,11.55,39.62,8.34,48.69,5.55,54.26,3.83,59.8,2.37,65.42,2.37a29.11,29.11,0,0,1,16.45,5c10.69,7,14.68,10.11,17.49,15.05C91.69,23,63.69,27.83,36.89,69.27ZM137.46,30.42c-10.81,2.28-25.61,5.4-43.32,28.67-1,1.34-1.84,2.74-2.74,4.14-4.58,7.16-8.54,13.35-18.59,11.19a45.08,45.08,0,0,1-5.62-1.65c-4.8-1.67-9.77-3.38-27.25-3.77,27.54-41.55,56.6-44.08,60.81-44.2,1.4,1.2,5.14,1.79,11.37,1.79,10.41,0,20.8.13,26.48.34,3.57.12,3.64.91,3.68,1.25S141.54,29.56,137.46,30.42Z"/>
        <path class="cls-1" d="M142.28,28.18c0,.19-.74,1.38-4.82,2.24-10.81,2.28-25.61,5.4-43.32,28.67-1,1.34-1.84,2.74-2.74,4.14-4.58,7.16-8.54,13.35-18.59,11.19a45.08,45.08,0,0,1-5.62-1.65c-4.8-1.67-9.77-3.38-27.25-3.77,27.54-41.55,56.6-44.08,60.81-44.2,1.4,1.2,5.14,1.79,11.37,1.79,10.41,0,20.8.13,26.48.34C142.17,27.05,142.24,27.84,142.28,28.18Z"/>
      </g>
    </g>
  </g>
</svg>
