<svg xmlns="http://www.w3.org/2000/svg" viewBox="0 0 50.91 67.39">
  <defs>
    <style>
      .cls-1 {
        fill: #337253;
      }
    </style>
  </defs>
  <title>sunset-donna-cherry</title>
  <g id="Layer_2" data-name="Layer 2">
    <g id="Layer_1-2" data-name="Layer 1">
      <path class="cls-1" d="M50.73,1.71,48.51.37A2.35,2.35,0,0,0,47.66,0,2.26,2.26,0,0,0,46.5.24a27.27,27.27,0,0,0-7.27,4.6,43.33,43.33,0,0,0-8.52,10.45c-1.21,2-2.32,4.06-3.34,6.16-.27.55-2.89,6.5-2.91,6.49A16.78,16.78,0,0,0,11.7,29.32a19.64,19.64,0,0,0-7.62,6.86A23.9,23.9,0,0,0,1.65,40.7a22.18,22.18,0,0,0-1,13.56,17.22,17.22,0,0,0,10,12,15.84,15.84,0,0,0,5.91,1.13,17.48,17.48,0,0,0,8.16-2.08c13.07-6.83,17-29.5,1.89-36.55A66.37,66.37,0,0,1,37.9,11.12a43.1,43.1,0,0,1,3.35-3.29c4.67-4.1,8.35-5.4,9.28-5.4a.4.4,0,0,0,.37-.28A.38.38,0,0,0,50.73,1.71ZM28,37.56a2.33,2.33,0,0,1-1.13,3.09,2.43,2.43,0,0,1-1,.21,2.34,2.34,0,0,1-2.11-1.35c-.54-1.19-2.94-1.9-5.32-1.57a2.33,2.33,0,0,1-.62-4.61,13.52,13.52,0,0,1,4.39.14c-.19.51-.39,1-.57,1.51a.39.39,0,0,0,.23.5,12.62,12.62,0,0,0,1.45.45h0a.38.38,0,0,0,.36-.26c.2-.53.4-1,.59-1.55A6.94,6.94,0,0,1,28,37.56Z"/>
    </g>
  </g>
</svg>
