<svg xmlns="http://www.w3.org/2000/svg" viewBox="0 0 17.58 35.87">
  <defs>
    <style>
      .cls-1 {
        fill: #337253;
      }

      .cls-2 {
        fill: #fff8d4;
      }
    </style>
  </defs>
  <title>sunset-back-left</title>
  <g id="Layer_2" data-name="Layer 2">
    <g id="Layer_1-2" data-name="Layer 1">
      <g>
        <path class="cls-1" d="M16.47,24.69c-.38-3.21-.8-6.42-1.26-9.61-.47-3.44-.67-7.21-1.62-10.56l-.05-.17A6.58,6.58,0,0,0,7.17,0C2.49.21,1.66,7.34,1.6,10.86s2.25,7.6,3.65,10l.26.46a5.74,5.74,0,0,0-2.62,1.46C1,24.52.08,27.62,0,32a2.63,2.63,0,0,0,.78,1.92c1.65,1.67,5.64,1.79,6.42,1.81l9.09.17a1.25,1.25,0,0,0,.51-.1,1.08,1.08,0,0,0,.44-.3,1.3,1.3,0,0,0,.34-1C17.27,31.22,16.87,28,16.47,24.69ZM7.78,33.18a5.74,5.74,0,0,1,.46-3.93c.34-.55.66-.74.74-.75a.83.83,0,0,0,.65-.95.82.82,0,0,0-.91-.66A2.8,2.8,0,0,0,7,28.27a6.94,6.94,0,0,0-.82,4.83c-1.4-.12-3-.44-3.55-1,0-3.7.74-6.28,2.07-7.54a3.42,3.42,0,0,1,2.54-.95A1.44,1.44,0,0,0,8.43,23c.49-.84.06-1.6-1-3.41-1.24-2.15-3.36-5.74-3.32-8.65a17.44,17.44,0,0,1,.66-4.26,18.74,18.74,0,0,1,1-3,2,2,0,0,1,.86-.91c1-.5,2.35.14,3.2.69A3.07,3.07,0,0,1,11.08,5,31.6,31.6,0,0,1,12,10.31c.28,1.82.56,3.67.82,5.52.46,3.32.89,6.63,1.29,10,.06.49.72,7.52.84,7.52Z"/>
        <path class="cls-2" d="M14.92,33.32l-7.14-.14a5.74,5.74,0,0,1,.46-3.93c.34-.55.66-.74.74-.75a.83.83,0,0,0,.65-.95.82.82,0,0,0-.91-.66A2.8,2.8,0,0,0,7,28.27a6.94,6.94,0,0,0-.82,4.83c-1.4-.12-3-.44-3.55-1,0-3.7.74-6.28,2.07-7.54a3.42,3.42,0,0,1,2.54-.95A1.44,1.44,0,0,0,8.43,23c.49-.84.06-1.6-1-3.41-1.24-2.15-3.36-5.74-3.32-8.65a17.44,17.44,0,0,1,.66-4.26,18.74,18.74,0,0,1,1-3,2,2,0,0,1,.86-.91c1-.5,2.35.14,3.2.69A3.07,3.07,0,0,1,11.08,5,31.6,31.6,0,0,1,12,10.31c.28,1.82.56,3.67.82,5.52.46,3.32.89,6.63,1.29,10C14.14,26.29,14.8,33.32,14.92,33.32Z"/>
      </g>
    </g>
  </g>
</svg>
