<svg xmlns="http://www.w3.org/2000/svg" viewBox="0 0 18.19 20.75">
  <defs>
    <style>
      .cls-1 {
        fill: #327152;
      }
    </style>
  </defs>
  <title>sunset-dog-tail</title>
  <g id="Layer_2" data-name="Layer 2">
    <g id="Layer_1-2" data-name="Layer 1">
      <path class="cls-1" d="M17.85,1A2,2,0,0,0,16.2,0c-.89-.06-1.47.66-2.92,2.42A39.81,39.81,0,0,1,1.68,12.64C0,13.41,0,14.25,0,14.25c0,.5.53,1.37,1.38,1C10,11.08,12.21,7.11,14.9,3.83c.4-.48.83-1,1.14-1.35a9.91,9.91,0,0,1-.92,3.07C13.64,9,9.05,15.64,3,18.75a1.06,1.06,0,0,0,.49,2A1,1,0,0,0,4,20.64c6.6-3.4,11.46-10.39,13.11-14.26C18.25,3.69,18.48,2,17.85,1Z"/>
    </g>
  </g>
</svg>
